<svg fill="none" height="163" viewBox="0 0 97 163" width="97" xmlns="http://www.w3.org/2000/svg" xmlns:xlink="http://www.w3.org/1999/xlink"><linearGradient id="a" gradientUnits="userSpaceOnUse" x1="48.4985" x2="48.4985" y1="36.375" y2="60.625"><stop offset="0" stop-color="#0ed4fc"/><stop offset="1" stop-color="#0c57ef"/></linearGradient><path d="m0 9.69999c0-5.35716 4.34284-9.69999 9.7-9.69999h77.6c5.3572 0 9.7 4.34284 9.7 9.7v143.075c0 5.357-4.3428 9.7-9.7 9.7h-77.6c-5.35717 0-9.7-4.343-9.7-9.7z" fill="#fff"/><path d="m28.2842 108.618v-1.447h-5.3994v1.954h2.7885l-.0089.204c-.0533 1.589-1.2699 2.664-3.0194 2.664-2.1314 0-3.4812-1.696-3.4812-4.476 0-2.726 1.2699-4.334 3.3835-4.334 1.4475 0 2.5398.8 2.9306 2.141h2.6908c-.3819-2.594-2.6375-4.361-5.6303-4.361-3.7654 0-6.1099 2.487-6.1099 6.59 0 4.165 2.3445 6.66 6.1721 6.66 3.57 0 5.6836-2.105 5.6836-5.595zm7.3646 2.469c-.2398.728-.968 1.199-1.9182 1.199-1.3232 0-2.1846-.932-2.1846-2.291v-.16h6.5627v-.79c0-2.895-1.7494-4.769-4.5202-4.769-2.8151 0-4.5913 1.971-4.5913 5.008 0 3.046 1.7584 4.92 4.689 4.92 2.3534 0 4.0584-1.252 4.3426-3.117zm-2.0337-4.893c1.1545 0 1.9449.835 1.9982 2.051h-4.0407c.0888-1.19.9058-2.051 2.0425-2.051zm6.0326-3.908v2.194h-1.341v1.954h1.341v5c0 1.856.8703 2.602 3.1082 2.602.524 0 .968-.045 1.2344-.107v-1.909c-.1598.026-.3996.044-.6305.044-.7637 0-1.119-.346-1.119-1.075v-4.555h1.7584v-1.954h-1.7584v-2.194zm17.0027 11.714h2.8507l-4.4581-12.815h-3.1526l-4.4492 12.815h2.753l.9769-3.108h4.5025zm-3.2592-10.364h.0622l1.6429 5.249h-3.348zm12.2668.693c-1.3765 0-2.4333.693-2.9484 1.812h-.0533v-1.661h-2.5576v12.628h2.5932v-4.707h.0532c.5062 1.075 1.5719 1.75 2.9573 1.75 2.38 0 3.8542-1.847 3.8542-4.911 0-3.073-1.4831-4.911-3.8986-4.911zm-.8703 7.735c-1.2699 0-2.1047-1.101-2.1047-2.824 0-1.705.8348-2.833 2.1047-2.833 1.2966 0 2.1136 1.11 2.1136 2.833 0 1.732-.817 2.824-2.1136 2.824zm11.1744-7.735c-1.3765 0-2.4333.693-2.9484 1.812h-.0532v-1.661h-2.5577v12.628h2.5932v-4.707h.0533c.5062 1.075 1.5718 1.75 2.9572 1.75 2.38 0 3.8542-1.847 3.8542-4.911 0-3.073-1.4831-4.911-3.8986-4.911zm-.8703 7.735c-1.2699 0-2.1047-1.101-2.1047-2.824 0-1.705.8348-2.833 2.1047-2.833 1.2966 0 2.1136 1.11 2.1136 2.833 0 1.732-.817 2.824-2.1136 2.824z" fill="#000"/><path d="m16.7332 124.919v8.543h1.0656v-3.049h2.1491c1.6045 0 2.7471-1.13 2.7471-2.729 0-1.628-1.1189-2.765-2.7352-2.765zm1.0656.948h1.8827c1.2374 0 1.9182.645 1.9182 1.817 0 1.131-.7045 1.782-1.9182 1.782h-1.8827zm8.4629 7.708c1.8176 0 2.9425-1.255 2.9425-3.304 0-2.054-1.1249-3.303-2.9425-3.303s-2.9424 1.249-2.9424 3.303c0 2.049 1.1248 3.304 2.9424 3.304zm0-.918c-1.2078 0-1.8886-.876-1.8886-2.386 0-1.515.6808-2.386 1.8886-2.386s1.8886.871 1.8886 2.386c0 1.51-.6808 2.386-1.8886 2.386zm4.5791-6.808c.3908 0 .7105-.32.7105-.711 0-.39-.3197-.71-.7105-.71-.3907 0-.7104.32-.7104.71 0 .391.3197.711.7104.711zm-.5092 7.613h1.0184v-6.382h-1.0184zm2.4656 0h1.0183v-3.777c0-1.119.6571-1.8 1.6754-1.8 1.0184 0 1.5038.545 1.5038 1.694v3.883h1.0183v-4.132c0-1.516-.7992-2.362-2.232-2.362-.9768 0-1.5985.414-1.9182 1.119h-.0947v-1.007h-.9709zm7.0123-8.034v1.652h-1.0301v.853h1.0301v3.872c0 1.219.527 1.705 1.8413 1.705.2013 0 .3966-.024.5979-.059v-.859c-.1894.018-.2901.024-.4736.024-.6631 0-.9473-.32-.9473-1.072v-3.611h1.4209v-.853h-1.4209v-1.652zm6.944.421c.3907 0 .7104-.32.7104-.711 0-.39-.3197-.71-.7104-.71-.3908 0-.7105.32-.7105.71 0 .391.3197.711.7105.711zm-.5092 7.613h1.0183v-6.382h-1.0183zm2.5958-8.543v8.543h1.0657v-3.049h2.1491c1.6044 0 2.747-1.13 2.747-2.729 0-1.628-1.1189-2.765-2.7352-2.765zm1.0657.948h1.8826c1.2374 0 1.9183.645 1.9183 1.817 0 1.131-.7046 1.782-1.9183 1.782h-1.8826zm6.0769 7.595h1.0183v-3.777c0-1.077.6276-1.8 1.7702-1.8.9651 0 1.4742.563 1.4742 1.694v3.883h1.0183v-4.132c0-1.498-.8525-2.362-2.2024-2.362-.9768 0-1.6458.414-1.9656 1.119h-.0947v-3.541h-1.0183zm9.2681.113c1.8175 0 2.9424-1.255 2.9424-3.304 0-2.054-1.1249-3.303-2.9424-3.303-1.8176 0-2.9425 1.249-2.9425 3.303 0 2.049 1.1249 3.304 2.9425 3.304zm0-.918c-1.2078 0-1.8886-.876-1.8886-2.386 0-1.515.6808-2.386 1.8886-2.386 1.2077 0 1.8886.871 1.8886 2.386 0 1.51-.6809 2.386-1.8886 2.386zm4.0462.805h1.0183v-3.777c0-1.119.6572-1.8 1.6755-1.8s1.5038.545 1.5038 1.694v3.883h1.0183v-4.132c0-1.516-.7993-2.362-2.232-2.362-.9769 0-1.5985.414-1.9182 1.119h-.0947v-1.007h-.971zm10.8133-1.651c-.2664.562-.8229.864-1.6459.864-1.0834 0-1.7879-.799-1.8412-2.06v-.048h4.5883v-.39c0-1.984-1.0479-3.209-2.7707-3.209-1.7525 0-2.8774 1.302-2.8774 3.309 0 2.019 1.1071 3.298 2.8774 3.298 1.3972 0 2.3918-.675 2.6878-1.764zm-1.6814-3.943c1.0124 0 1.6873.746 1.711 1.876h-3.5167c.0769-1.13.7874-1.876 1.8057-1.876zm-56.8029 15.166c-.1776-1.137-1.1248-2.066-2.676-2.066-1.788 0-2.9247 1.29-2.9247 3.28 0 2.03 1.1427 3.327 2.9306 3.327 1.5334 0 2.4866-.864 2.6701-2.037h-1.0301c-.1895.723-.7874 1.119-1.6459 1.119-1.1367 0-1.8708-.935-1.8708-2.409 0-1.445.7222-2.363 1.8708-2.363.9177 0 1.4801.515 1.6459 1.149zm2.7852 4.541c.8526 0 1.5512-.373 1.9656-1.054h.0947v.941h.971v-4.369c0-1.326-.8703-2.125-2.4274-2.125-1.3617 0-2.3681.675-2.5043 1.699h1.0301c.1421-.503.675-.793 1.4387-.793.9532 0 1.4446.432 1.4446 1.219v.58l-1.8413.113c-1.486.089-2.3267.746-2.3267 1.888 0 1.167.9177 1.901 2.155 1.901zm.1895-.894c-.7401 0-1.2907-.379-1.2907-1.03 0-.64.4263-.977 1.3973-1.042l1.7169-.113v.586c0 .912-.7756 1.599-1.8235 1.599zm4.2298.781h1.0183v-3.954c0-.9.6453-1.623 1.4801-1.623.8052 0 1.3321.486 1.3321 1.244v4.333h1.0183v-4.102c0-.812.592-1.475 1.4801-1.475.8999 0 1.3439.462 1.3439 1.404v4.173h1.0183v-4.41c0-1.338-.7282-2.084-2.0307-2.084-.8821 0-1.6103.444-1.9537 1.119h-.0947c-.296-.663-.8999-1.119-1.7643-1.119-.8525 0-1.4919.408-1.782 1.119h-.0948v-1.007h-.9709zm14.2826-1.651c-.2664.562-.8229.864-1.6459.864-1.0834 0-1.7879-.799-1.8412-2.06v-.048h4.5883v-.39c0-1.984-1.0479-3.209-2.7707-3.209-1.7525 0-2.8774 1.302-2.8774 3.309 0 2.019 1.1072 3.298 2.8774 3.298 1.3972 0 2.3918-.675 2.6878-1.764zm-1.6814-3.943c1.0124 0 1.6873.746 1.711 1.876h-3.5167c.077-1.13.7874-1.876 1.8057-1.876zm3.8864 5.594h1.0183v-3.954c0-.9.7046-1.552 1.6755-1.552.2013 0 .5684.036.6513.06v-1.019c-.1303-.017-.3434-.029-.5092-.029-.8466 0-1.5807.438-1.7702 1.059h-.0947v-.947h-.971zm5.8994.113c.8525 0 1.5511-.373 1.9655-1.054h.0948v.941h.9709v-4.369c0-1.326-.8703-2.125-2.4273-2.125-1.3617 0-2.3682.675-2.5044 1.699h1.0302c.1421-.503.6749-.793 1.4386-.793.9532 0 1.4446.432 1.4446 1.219v.58l-1.8412.113c-1.4861.089-2.3268.746-2.3268 1.888 0 1.167.9177 1.901 2.1551 1.901zm.1894-.894c-.74 0-1.2906-.379-1.2906-1.03 0-.64.4262-.977 1.3972-1.042l1.7169-.113v.586c0 .912-.7756 1.599-1.8235 1.599zm7.2163.781h1.0183v-3.777c0-1.077.6276-1.8 1.7702-1.8.9651 0 1.4742.563 1.4742 1.694v3.883h1.0183v-4.132c0-1.498-.8525-2.362-2.2024-2.362-.9768 0-1.6458.414-1.9655 1.119h-.0948v-3.541h-1.0183zm10.8725-1.651c-.2664.562-.8229.864-1.6459.864-1.0834 0-1.7879-.799-1.8412-2.06v-.048h4.5883v-.39c0-1.984-1.0479-3.209-2.7708-3.209-1.7524 0-2.8773 1.302-2.8773 3.309 0 2.019 1.1071 3.298 2.8773 3.298 1.3973 0 2.3919-.675 2.6879-1.764zm-1.6814-3.943c1.0124 0 1.6873.746 1.711 1.876h-3.5167c.0769-1.13.7874-1.876 1.8057-1.876zm3.8864 5.594h1.0183v-3.954c0-.9.7045-1.552 1.6755-1.552.2013 0 .5684.036.6512.06v-1.019c-.1302-.017-.3433-.029-.5091-.029-.8466 0-1.5808.438-1.7702 1.059h-.0947v-.947h-.971zm8.1728-1.651c-.2664.562-.8229.864-1.6459.864-1.0834 0-1.7879-.799-1.8412-2.06v-.048h4.5883v-.39c0-1.984-1.0479-3.209-2.7708-3.209-1.7524 0-2.8773 1.302-2.8773 3.309 0 2.019 1.1071 3.298 2.8773 3.298 1.3973 0 2.3919-.675 2.6879-1.764zm-1.6814-3.943c1.0124 0 1.6873.746 1.711 1.876h-3.5167c.0769-1.13.7874-1.876 1.8057-1.876z" fill="#3c3c43" fill-opacity=".6"/><g fill="#000"><path d="m22.3001 9.15304h1.033c.1878 0 .3756-.18782.3756-.37563v-1.12688c0-.18781-.1878-.37563-.3756-.37563h-1.033c-.1878 0-.3756.18782-.3756.37563v1.03297c0 .28172.1878.46954.3756.46954z"/><path d="m25.9622 9.15304h1.033c.1878 0 .3756-.18782.3756-.37563v-1.12688c0-.18781-.1878-.37563-.3756-.37563h-1.033c-.1878 0-.3756.18782-.3756.37563v1.03297c0 .28172.1878.46954.3756.46954z"/><path d="m35.165 9.15304h1.033c.1878 0 .3756-.18782.3756-.37563v-1.12688c0-.18781-.1878-.37563-.3756-.37563h-1.033c-.1878 0-.3756.18782-.3756.37563v1.03297c-.094.28172.0939.46954.3756.46954z"/><path d="m40.6117 9.15304h1.033c.1878 0 .3756-.18782.3756-.37563v-1.12688c0-.18781-.1878-.37563-.3756-.37563h-1.033c-.1878 0-.3756.18782-.3756.37563v1.03297c0 .28172.1878.46954.3756.46954z"/><path d="m47.9369 9.15304h1.033c.1878 0 .3756-.18782.3756-.37563v-1.12688c0-.18781-.1878-.37563-.3756-.37563h-1.033c-.1878 0-.3756.18782-.3756.37563v1.03297c0 .28172.1878.46954.3756.46954z"/><path d="m58.9238 9.15303h1.033c.1878 0 .3756.18782.3756.37563v1.40864 1.4086c0 .1878.1878.3756.3757.3756h1.4085 1.4086c.1879 0 .3757.1878.3757.3756v1.033c0 .1878.1878.3756.3756.3756h1.033c.1878 0 .3756.1878.3756.3756v1.033c0 .1878.1878.3756.3756.3756h1.2208c.1878 0 .3756-.1878.3756-.3756v-1.033c0-.1878.1879-.3756.3757-.3756h1.1268c.1879 0 .3757-.1878.3757-.3756v-1.3147-.3756-1.033c0-.1878-.1878-.3756-.3757-.3756h-1.0329c-.1878 0-.3757.1878-.3757.3756v1.033c0 .1878-.1878.3756-.3756.3756h-1.033c-.1878 0-.3756-.1878-.3756-.3756v-1.033c0-.1878-.1878-.3756-.3756-.3756h-1.4086-1.5964c-.1878 0-.3756-.1878-.3756-.3757v-1.50247-1.5025c0-.18781-.1879-.37563-.3757-.37563h-1.4086-.3756-1.033c-.1878 0-.3756.18782-.3756.37563v1.03297c-.0939.28172.0939.46953.2817.46953z"/><path d="m66.2486 9.15304h1.033c.1878 0 .3756-.18782.3756-.37563v-1.12688c0-.18781-.1878-.37563-.3756-.37563h-1.033c-.1878 0-.3756.18782-.3756.37563v1.03297c0 .28172.1878.46954.3756.46954z"/><path d="m73.5727 9.15304h1.033c.1878 0 .3756-.18782.3756-.37563v-1.12688c0-.18781-.1878-.37563-.3756-.37563h-1.033c-.1878 0-.3756.18782-.3756.37563v1.03297c0 .28172.1878.46954.3756.46954z"/><path d="m33.2875 10.9388h1.033c.1878 0 .3756-.1878.3756-.3757v-1.03293c0-.18782-.1878-.37563-.3756-.37563h-1.033c-.1878 0-.3756.18781-.3756.37563v1.03293c0 .1879.1878.3757.3756.3757z"/><path d="m36.1979 12.814c.1878 0 .3756-.1878.3756-.3756v-1.033c0-.1878-.1878-.3756-.3756-.3756h-1.033c-.1878 0-.3756.1878-.3756.3756v1.033c0 .1878.1878.3756.3756.3756z"/><path d="m56.764 12.3456c0 .1878.1878.3756.3757.3756h1.0329c.1878 0 .3757-.1878.3757-.3756v-1.033c0-.1878-.1879-.3756-.3757-.3756h-1.0329c-.1879 0-.3757.1878-.3757.3756z"/><path d="m34.3205 14.6004c.1878 0 .3756-.1878.3756-.3756v-1.033c0-.1878-.1878-.3756-.3756-.3756h-1.033c-.1878 0-.3756.1878-.3756.3756v1.033c0 .1878.1878.3756.3756.3756z"/><path d="m36.574 14.2255c0 .1878.1878.3756.3756.3756h1.4086 1.4086c.1878 0 .3757-.1878.3757-.3756v-1.033c0-.1878.1878-.3756.3756-.3756h1.033c.1878 0 .3756-.1878.3756-.3756v-1.033c0-.1878-.1878-.3756-.3756-.3756h-1.033c-.1878 0-.3756-.1878-.3756-.3757v-1.12683c0-.18782-.1879-.37563-.3757-.37563h-1.0329c-.1879 0-.3757.18781-.3757.37563v1.40863 1.4086c0 .1878-.1878.3756-.3756.3756h-1.033c-.1878 0-.3756.1878-.3756.3756z"/><path d="m30.6575 14.5994h-1.033c-.1878 0-.3756.1878-.3756.3756v1.033c0 .1878.1878.3756.3756.3756h1.033c.1878 0 .3756-.1878.3756-.3756v-1.033c.0939-.1878-.0939-.3756-.3756-.3756z"/><path d="m41.6453 14.5996h-1.033c-.1878 0-.3756.1878-.3756.3756v1.033c0 .1878.1878.3756.3756.3756h1.033c.1878 0 .3756.1879.3756.3757v1.0329c0 .1879.1878.3757.3756.3757h1.033c.1878 0 .3756.1878.3756.3756v1.033c0 .1878-.1878.3756-.3756.3756h-1.033c-.1878 0-.3756-.1878-.3756-.3756v-1.033c0-.1878-.1878-.3756-.3756-.3756h-1.033c-.1878 0-.3756.1878-.3756.3756v1.033c0 .1878-.1878.3756-.3757.3756h-1.0329c-.1878 0-.3757.1878-.3757.3756v1.4086 1.4086c0 .1878.1879.3756.3757.3756h1.0329c.1879 0 .3757.1879.3757.3757v1.0329c0 .1879.1878.3757.3756.3757h1.033c.1878 0 .3756-.1878.3756-.3757v-1.4086-1.4086c0-.1878.1878-.3756.3756-.3756h1.033c.1878 0 .3756.1878.3756.3756v1.033c0 .1878.1878.3756.3756.3756h1.033c.1878 0 .3756.1879.3756.3757v1.0329c0 .1879.1879.3757.3757.3757h1.0329c.1879 0 .3757-.1878.3757-.3757v-1.0329c0-.1878.1878-.3757.3756-.3757h1.033c.1878 0 .3756.1879.3756.3757v1.0329c0 .1879.1878.3757.3756.3757h1.033c.1878 0 .3756-.1878.3756-.3757v-1.0329c0-.1878.1878-.3757.3756-.3757h1.033c.1878 0 .3756-.1878.3756-.3756v-1.033c0-.1878.1879-.3756.3757-.3756h1.0329c.1879 0 .3757-.1878.3757-.3756v-1.033c0-.1878-.1878-.3756-.3757-.3756h-1.0329c-.1878 0-.3757-.1878-.3757-.3756v-1.4086-1.8782-1.8781-1.8781-1.4086c0-.1878.1879-.3757.3757-.3757h1.4086.3756 1.033c.1878 0 .3756-.1878.3756-.3756v-.84514c0-.18781-.1878-.37563-.3756-.37563h-1.4086-1.4086c-.1878 0-.3757-.18781-.3757-.37562v-1.12688c0-.18781-.1878-.37563-.3756-.37563h-1.033c-.1878 0-.3756.18782-.3756.37563v1.03297c0 .18781-.1878.37563-.3756.37563h-1.033c-.1878 0-.3756.18781-.3756.37562v1.03295c0 .1878.1878.3757.3756.3757h1.033c.1878 0 .3756.1878.3756.3756v1.033c0 .1878-.1878.3756-.3756.3756h-1.1269-1.4086c-.1878 0-.3756.1878-.3756.3756v1.033c0 .1878-.1878.3756-.3756.3756h-1.033c-.1878 0-.3756-.1878-.3756-.3756v-1.2208-1.4086c0-.1878.1878-.3756.3756-.3756h1.033c.1878 0 .3756-.1878.3756-.3757v-1.12684c0-.18781-.1878-.37563-.3756-.37563h-1.5965-1.4086c-.1878 0-.3756.18782-.3756.37563v1.40864 1.8781 1.4086c0 .1878-.1878.3756-.3756.3756h-1.4086zm5.9161 1.8781h1.8781 1.4086c.1878 0 .3756.1879.3756.3757v1.4086 1.7842 1.4086c0 .1878-.1878.3756-.3756.3756h-1.4086-1.8781-1.4086c-.1878 0-.3756-.1878-.3756-.3756v-1.4086-1.7842-1.4086c0-.1878.1878-.3757.3756-.3757z"/><path d="m69.5351 16.0097c0 .1878.1879.3756.3757.3756h1.4086 1.8781 1.4086c.1878 0 .3756-.1878.3756-.3756v-1.4086-1.4086c0-.1878-.1878-.3756-.3756-.3756h-1.033c-.1878 0-.3756-.1878-.3756-.3756v-1.5025-.3757-1.03293c0-.18782-.1878-.37563-.3756-.37563h-1.033c-.1878 0-.3756.18781-.3756.37563v1.40863 1.8781 1.4086c0 .1878-.1878.3756-.3757.3756h-1.0329c-.1878 0-.3757.1878-.3757.3756v1.033z"/><path d="m32.5357 16.4785h-1.033c-.1878 0-.3756.1878-.3756.3756v1.033c0 .1878.1878.3756.3756.3756h1.033c.1878 0 .3756.1879.3756.3757v1.0329c0 .1879.1878.3757.3756.3757h1.033c.1878 0 .3756-.1878.3756-.3757v-1.0329c0-.1878.1878-.3757.3756-.3757h1.033c.1878 0 .3756-.1878.3756-.3756v-1.033c0-.1878-.1878-.3756-.3756-.3756h-1.4086-1.7842z"/><path d="m38.8277 18.2627h1.033c.1878 0 .3756-.1878.3756-.3756v-1.033c0-.1878-.1878-.3756-.3756-.3756h-1.033c-.1878 0-.3756.1878-.3756.3756v1.033c-.0939.1878.0939.3756.3756.3756z"/><path d="m69.1597 16.4785h-1.033c-.1878 0-.3756.1878-.3756.3756v1.033c0 .1878.1878.3756.3756.3756h1.033c.1878 0 .3756-.1878.3756-.3756v-1.033c0-.2817-.1878-.3756-.3756-.3756z"/><path d="m22.3001 20.1401h1.033c.1878 0 .3756-.1878.3756-.3756v-1.4086-1.4086c0-.1878.1878-.3756.3756-.3756h1.033c.1878 0 .3756.1878.3756.3756v1.4086 1.7842 1.4086c0 .1878.1878.3756.3756.3756h1.033c.1878 0 .3756.1879.3756.3757v1.4086 1.4086c0 .1878.1879.3756.3757.3756h1.0329c.1879 0 .3757-.1878.3757-.3756v-1.033c0-.1878.1878-.3756.3756-.3756h1.2208c.1878 0 .3756-.1878.3756-.3757v-1.0329c0-.1878-.1878-.3757-.3756-.3757h-1.033c-.1878 0-.3756-.1878-.3756-.3756v-1.033c0-.1878-.1878-.3756-.3756-.3756h-1.033c-.1878 0-.3756-.1878-.3756-.3756v-1.033c0-.1878.1878-.3756.3756-.3756h1.033c.1878 0 .3756-.1878.3756-.3756v-1.033c0-.1878-.1878-.3756-.3756-.3756h-1.033c-.1878 0-.3756-.1878-.3756-.3757v-1.4086-1.4086c0-.1878.1878-.3756.3756-.3756h1.4086 1.8781.3756 1.033c.1878 0 .3756-.1878.3756-.3756v-1.033c0-.1878-.1878-.3756-.3756-.3756h-1.4086-1.8781-1.8781-1.8782-1.4086c-.1878 0-.3756.1878-.3756.3756v1.2208 1.4086c0 .1878-.1878.3756-.3756.3756h-1.033c-.1878 0-.3756.1878-.3756.3757v1.4086 1.8781 1.4086c0 .2817.1878.4695.3756.4695z"/><path d="m29.2489 19.6698c0 .1878.1878.3757.3756.3757h1.033c.1878 0 .3756-.1879.3756-.3757v-1.0329c0-.1879-.1878-.3757-.3756-.3757h-1.033c-.1878 0-.3756.1878-.3756.3757z"/><path d="m36.574 19.6698c0 .1878.1878.3757.3756.3757h1.033c.1878 0 .3756-.1879.3756-.3757v-1.0329c0-.1879-.1878-.3757-.3756-.3757h-1.033c-.1878 0-.3756.1878-.3756.3757z"/><path d="m47.9369 20.1412h1.033c.1878 0 .3756-.1879.3756-.3757v-1.0329c0-.1879-.1878-.3757-.3756-.3757h-1.033c-.1878 0-.3756.1878-.3756.3757v1.0329c0 .1878.1878.3757.3756.3757z"/><path d="m55.2612 20.1412h1.033c.1878 0 .3756-.1879.3756-.3757v-1.0329c0-.1879-.1878-.3757-.3756-.3757h-1.033c-.1878 0-.3756.1878-.3756.3757v1.0329c0 .1878.1878.3757.3756.3757z"/><path d="m67.2816 18.2612h-1.033c-.1878 0-.3756.1878-.3756.3757v1.4086 1.4086c0 .1878.1878.3756.3756.3756h1.4086.3757 1.1268c.1879 0 .3757-.1878.3757-.3756v-1.033c0-.1878-.1878-.3756-.3757-.3756h-1.0329c-.1878 0-.3757-.1879-.3757-.3757v-1.0329c0-.1879-.1878-.3757-.4695-.3757z"/><path d="m69.5351 19.6698c0 .1878.1879.3757.3757.3757h1.0329c.1879 0 .3757-.1879.3757-.3757v-1.0329c0-.1879-.1878-.3757-.3757-.3757h-1.0329c-.1878 0-.3757.1878-.3757.3757z"/><path d="m18.2623 21.9236h-1.8782-1.7842-1.8781-1.8781-.2818-1.03294c-.18781 0-.37562.1878-.37562.3756v1.033c0 .1878.18781.3756.37562.3756h1.40864 1.8781 1.4086c.1878 0 .3756.1878.3756.3756v1.033c0 .1878.1878.3756.3756.3756h1.033c.1878 0 .3756-.1878.3756-.3756v-1.033c0-.1878.1879-.3756.3757-.3756h1.4086 1.4086c.1878 0 .3756.1878.3756.3756v1.033c0 .1878-.1878.3756-.3756.3756h-1.4086-.3757-1.0329c-.1878 0-.3757.1878-.3757.3757v1.0329c0 .1878.1879.3757.3757.3757h1.4086 1.8781 1.4086c.1878 0 .3756-.1879.3756-.3757v-.939c0-.1878.1878-.3757.3757-.3757h1.0329c.1878 0 .3757-.1878.3757-.3756v-1.033c0-.1878-.1879-.3756-.3757-.3756h-1.0329c-.1879 0-.3757-.1878-.3757-.3756v-1.033c0-.1878-.1878-.3756-.3756-.3756h-1.4086-1.7842z"/><path d="m25.2114 21.9236h-1.033c-.1878 0-.3756.1878-.3756.3756v1.033c0 .1878.1878.3756.3756.3756h1.033c.1878 0 .3756-.1878.3756-.3756v-1.033c0-.1878-.1878-.3756-.3756-.3756z"/><path d="m36.1979 21.9236h-1.033c-.1878 0-.3756.1878-.3756.3756v1.033c0 .1878.1878.3756.3756.3756h1.033c.1878 0 .3756-.1878.3756-.3756v-1.033c0-.1878-.1878-.3756-.3756-.3756z"/><path d="m65.8724 22.2992c0-.1878-.1878-.3756-.3756-.3756h-1.033c-.1878 0-.3756.1878-.3756.3756v1.033c0 .1878.1878.3756.3756.3756h1.033c.1878 0 .3756-.1878.3756-.3756z"/><path d="m74.9813 21.9236v-1.8781-.3757-1.0329c0-.1879-.1878-.3757-.3756-.3757h-1.033c-.1878 0-.3756.1878-.3756.3757v1.4086 1.4086c0 .1878-.1878.3756-.3756.3756h-1.4086-.3757-1.0329c-.1878 0-.3757.1878-.3757.3756v1.033c0 .1878.1879.3756.3757.3756h1.0329c.1879 0 .3757.1878.3757.3756v1.033c0 .1878.1878.3756.3756.3756h1.4086 1.8781.3757 1.0329c.1878 0 .3757-.1878.3757-.3756v-1.033c0-.1878-.1879-.3756-.3757-.3756h-1.0329c-.1879 0-.3757-.1878-.3757-.3756v-1.3147z"/><path d="m81.9304 21.9236h-1.4086-.3756-1.033c-.1878 0-.3756.1878-.3756.3756v1.033c0 .1878.1878.3756.3756.3756h1.033c.1878 0 .3756.1878.3756.3756v1.033c0 .1878.1878.3756.3756.3756h1.033c.1878 0 .3756-.1878.3756-.3756v-1.4086-1.4086c0-.1878-.0939-.3756-.3756-.3756z"/><path d="m89.2551 21.9236h-1.033c-.1878 0-.3756.1878-.3756.3756v1.033c0 .1878-.1878.3756-.3756.3756h-1.4086-.3757-1.0329c-.1878 0-.3757.1878-.3757.3756v1.033c0 .1878.1879.3756.3757.3756h1.0329c.1879 0 .3757.1878.3757.3757v1.0329c0 .1878.1878.3757.3756.3757h1.033c.1878 0 .3756.1878.3756.3756v1.033c0 .1878.1878.3756.3756.3756h1.033c.1878 0 .3756-.1878.3756-.3756v-1.4086-1.8782-1.8781-.3756-1.033s-.0939-.1878-.3756-.1878z"/><path d="m34.3205 23.803h-1.033c-.1878 0-.3756.1878-.3756.3756v1.033c0 .1878.1878.3756.3756.3756h1.033c.1878 0 .3756-.1878.3756-.3756v-1.033c0-.2817-.0939-.3756-.3756-.3756z"/><path d="m69.1597 23.803h-1.4086-.4695-1.033c-.1878 0-.3756.1878-.3756.3756v1.033c0 .1878.1878.3756.3756.3756h1.4086.3757 1.1268c.1879 0 .3757-.1878.3757-.3756v-1.033c0-.2817-.1878-.3756-.3757-.3756z"/><path d="m14.5997 25.9613c0-.1878-.1878-.3756-.3756-.3756h-1.033c-.1878 0-.3756.1878-.3756.3756v1.033c0 .1878.1878.3756.3756.3756h1.033c.1878 0 .3756-.1878.3756-.3756z"/><path d="m38.8273 27.4638h1.033c.1878 0 .3756-.1878.3756-.3756v-1.1269c0-.1878-.1878-.3756-.3756-.3756h-1.4086-1.8782-.3756-1.033c-.1878 0-.3756.1878-.3756.3756v1.033c0 .1878.1878.3756.3756.3756h1.4086 1.8782.3756z"/><path d="m53.4768 27.4638h1.033c.1878 0 .3756-.1878.3756-.3756v-1.1269c0-.1878-.1878-.3756-.3756-.3756h-1.033c-.1878 0-.3756.1878-.3756.3756v1.033c-.0939.2817.0939.4695.3756.4695z"/><path d="m69.5351 26.9943c0 .1878.1879.3756.3757.3756h1.0329c.1879 0 .3757-.1878.3757-.3756v-1.033c0-.1878-.1878-.3756-.3757-.3756h-1.0329c-.1878 0-.3757.1878-.3757.3756z"/><path d="m83.8091 25.5857h-1.0329c-.1879 0-.3757.1878-.3757.3756v1.033c0 .1878.1878.3756.3757.3756h1.0329c.1878 0 .3757-.1878.3757-.3756v-1.033c0-.1878-.1879-.3756-.3757-.3756z"/><path d="m9.52862 29.2493h1.03298c.1878 0 .3756-.1878.3756-.3756v-1.033c0-.1878-.1878-.3756-.3756-.3756h-1.03298c-.28172 0-.46954.0939-.46954.3756v1.033c0 .1878.18782.3756.46954.3756z"/><path d="m63.9948 27.8407c0-.1878-.1878-.3756-.3756-.3756h-1.033c-.1878 0-.3756.1878-.3756.3756v1.033c0 .1878.1878.3756.3756.3756h1.033c.1878 0 .3756-.1878.3756-.3756z"/><path d="m78.7381 28.8737c0 .1878-.1878.3756-.3756.3756h-1.033c-.1878 0-.3756-.1878-.3756-.3756v-1.033c0-.1878-.1878-.3756-.3756-.3756h-1.4086-1.8781-1.4086c-.1879 0-.3757.1878-.3757.3756v1.033c0 .1878-.1878.3756-.3756.3756h-1.4086-.5634-1.033c-.1878 0-.3756.1878-.3756.3756v1.033c0 .1878.1878.3756.3756.3756h1.4086 1.4086c.1878 0 .3756.1879.3756.3757v1.1268c0 .1879.1878.3757.3756.3757h1.4086 1.4086c.1879 0 .3757-.1878.3757-.3757v-1.0329c0-.1878.1878-.3757.3756-.3757h1.4086 1.8781 1.4086c.1878 0 .3757-.1878.3757-.3756v-1.033c0-.1878.1878-.3756.3756-.3756h1.033c.1878 0 .3756-.1878.3756-.3756v-1.1269c0-.1878-.1878-.3756-.3756-.3756h-1.4086-1.4086c-.1879 0-.3757.1878-.3757.3756v1.033z"/><path d="m14.2241 29.2478h-1.033c-.1878 0-.3756.1878-.3756.3756v1.033c0 .1878.1878.3756.3756.3756h1.033c.1878 0 .3756-.1878.3756-.3756v-1.033c0-.1878-.1878-.3756-.3756-.3756z"/><path d="m18.2618 29.2478h-.3756-1.033c-.1878 0-.3756.1878-.3756.3756v1.033c0 .1878.1878.3756.3756.3756h1.4086.3757 1.0329c.1878 0 .3757-.1878.3757-.3756v-1.033c0-.1878-.1879-.3756-.3757-.3756z"/><path d="m61.8346 29.2478h-1.033c-.1878 0-.3756.1878-.3756.3756v1.033c0 .1878.1878.3756.3756.3756h1.033c.1878 0 .3756-.1878.3756-.3756v-1.033c0-.1878-.1878-.3756-.3756-.3756z"/><path d="m9.05908 32.5356c0 .1878.18781.3756.37563.3756h1.50249.3756 1.033c.1878 0 .3756-.1878.3756-.3756v-1.033c0-.1878-.1878-.3756-.3756-.3756h-1.4086-.3756-1.03298c-.18782 0-.37563.1878-.37563.3756v1.033z"/><path d="m32.9117 31.1274v-1.4086c0-.1878.1878-.3756.3757-.3756h1.0329c.1878 0 .3756-.1878.3756-.3756v-1.1269c0-.1878-.1878-.3756-.3756-.3756h-1.4086-1.4086c-.1878 0-.3756.1878-.3756.3756v1.033c0 .1878-.1878.3756-.3756.3756h-1.033c-.1878 0-.3756.1878-.3756.3756v1.033c0 .1878.1878.3756.3756.3756h.9391c.1878 0 .3756.1879.3756.3757v1.1268c0 .1879.1878.3757.3756.3757h1.1269c.1878 0 .3756-.1878.3756-.3757z"/><path d="m36.9492 32.9127h1.0329c.1879 0 .3757-.1878.3757-.3756v-1.4086-1.4086c0-.1878-.1878-.3757-.3757-.3757h-1.4086-.3756-1.033c-.1878 0-.3756.1879-.3756.3757v.939c0 .1878.1878.3757.3756.3757h1.033c.1878 0 .3756.1878.3756.3756v1.1269c0 .1878.1879.3756.3757.3756z"/><path d="m40.6117 32.9112h1.033c.1878 0 .3756-.1878.3756-.3756v-1.033c0-.1878-.1878-.3756-.3756-.3756h-1.033c-.1878 0-.3756.1878-.3756.3756v1.033c0 .1878.1878.3756.3756.3756z"/><path d="m47.9365 32.9109h1.5025 1.8781 1.7842 1.8782 1.4086c.1878 0 .3756-.1878.3756-.3756v-1.033c0-.1878.1878-.3756.3756-.3756h1.033c.1878 0 .3756-.1878.3756-.3756v-1.4086-1.7843-1.5964c0-.1878.1878-.3756.3756-.3756h1.033c.1878 0 .3756.1878.3756.3756v1.033c0 .1878.1879.3756.3757.3756h1.0329c.1879 0 .3757-.1878.3757-.3756v-1.4086-1.4086c0-.1878-.1878-.3756-.3757-.3756h-1.0329c-.1878 0-.3757-.1878-.3757-.3756v-1.033c0-.1878.1879-.3756.3757-.3756h1.4086 1.4086c.1878 0 .3756-.1879.3756-.3757v-1.4086-1.4086c0-.1878.1878-.3756.3756-.3756h1.033c.1878 0 .3756-.1878.3756-.3756v-1.033c0-.1878-.1878-.3756-.3756-.3756h-1.4086-1.3147c-.1878 0-.3756-.1878-.3756-.3756v-1.033c0-.1878-.1878-.3756-.3756-.3756h-1.4086-.3757-1.0329c-.1879 0-.3757.1878-.3757.3756v1.033c0 .1878.1878.3756.3757.3756h1.0329c.1878 0 .3757.1878.3757.3756v1.033c0 .1878.1878.3756.3756.3756h1.033c.1878 0 .3756.1878.3756.3756v1.033c0 .1878-.1878.3756-.3756.3756h-1.033c-.1878 0-.3756-.1878-.3756-.3756v-1.033c0-.1878-.1879-.3756-.3757-.3756h-1.0329c-.1879 0-.3757.1878-.3757.3756v1.4086 1.8782 1.4086c0 .1878-.1878.3756-.3756.3756h-1.033c-.1878 0-.3756-.1878-.3756-.3756v-1.033c0-.1878-.1878-.3756-.3756-.3756h-1.033c-.1878 0-.3756.1878-.3756.3756v1.4086 1.4086c0 .1878.1878.3756.3756.3756h1.033c.1878 0 .3756.1878.3756.3756v1.4086 1.4086c0 .1879-.1878.3757-.3756.3757h-1.4086-1.4086c-.1878 0-.3757-.1878-.3757-.3757v-1.0329c0-.1878-.1878-.3757-.3756-.3757h-1.4086-1.8781-1.8781-1.4086c-.1879 0-.3757-.1878-.3757-.3756v-1.1269c0-.1878-.1878-.3756-.3756-.3756h-1.033c-.1878 0-.3756.1878-.3756.3756v1.033c0 .1878-.1878.3756-.3756.3756h-1.4086-.3756-1.033c-.1878 0-.3756.1878-.3756.3757v1.0329c0 .1878.1878.3757.3756.3757h1.4086 1.4086c.1878 0 .3756.1878.3756.3756v1.4086 1.5964c0 .1878.1878.3756.3756.3756h1.033c.1878 0 .3756-.1878.3756-.3756v-1.033c0-.1878.1878-.3756.3757-.3756h1.0329c.1878 0 .3757.1878.3757.3756v1.033c-.1879.1878 0 .3756.1878.3756z"/><path d="m60.4264 31.5026c0-.1878-.1878-.3756-.3756-.3756h-1.033c-.1878 0-.3756.1878-.3756.3756v1.033c0 .1878.1878.3756.3756.3756h1.033c.1878 0 .3756-.1878.3756-.3756z"/><path d="m64.4639 32.9112h1.4086.3756 1.033c.1878 0 .3756-.1878.3756-.3756v-1.033c0-.1878-.1878-.3756-.3756-.3756h-1.4086-.3756-1.033c-.1878 0-.3756.1878-.3756.3756v1.033c-.0939.1878.0939.3756.3756.3756z"/><path d="m81.931 31.127h-1.033c-.1878 0-.3756.1878-.3756.3756v1.033c0 .1878.1878.3756.3756.3756h1.033c.1878 0 .3756-.1878.3756-.3756v-1.033c0-.2817-.0939-.3756-.3756-.3756z"/><path d="m86.0628 31.1274v-1.8781-.3756-1.033c0-.1878-.1878-.3756-.3756-.3756h-1.033c-.1878 0-.3756.1878-.3756.3756v1.033c0 .1878-.1878.3756-.3756.3756h-1.033c-.1878 0-.3756.1878-.3756.3756v1.033c0 .1878.1878.3756.3756.3756h1.033c.1878 0 .3756.1879.3756.3757v1.1268c0 .1879.1878.3757.3756.3757h1.033c.1878 0 .3756-.1878.3756-.3757z"/><path d="m89.2558 31.127h-1.033c-.1878 0-.3756.1878-.3756.3756v1.033c0 .1878-.1878.3756-.3756.3756h-1.033c-.1878 0-.3756.1878-.3756.3756v1.033c0 .1878.1878.3756.3756.3756h1.033c.1878 0 .3756.1878.3756.3756v1.033c0 .1878.1878.3756.3756.3756h1.033c.1878 0 .3756-.1878.3756-.3756v-1.4086-1.8781-.2817-1.033c0-.2817-.0939-.3756-.3756-.3756z"/><path d="m31.1275 33.286c0-.1878-.1878-.3756-.3756-.3756h-1.033c-.1878 0-.3756.1878-.3756.3756v1.033c0 .1878.1878.3756.3756.3756h.9391c.1878 0 .3756-.1878.3756-.3756v-1.033z"/><path d="m68.1267 34.7906h1.033c.1878 0 .3756-.1878.3756-.3757v-1.0329c0-.1878-.1878-.3757-.3756-.3757h-1.033c-.1878 0-.3756.1879-.3756.3757v1.0329c0 .1879.0939.3757.3756.3757z"/><path d="m82.3062 34.319c0 .1878.1878.3756.3756.3756h1.033c.1878 0 .3756-.1878.3756-.3756v-1.033c0-.1878-.1878-.3756-.3756-.3756h-1.033c-.1878 0-.3756.1878-.3756.3756z"/><path d="m32.9113 35.1649c0-.1878-.1878-.3756-.3756-.3756h-1.033c-.1878 0-.3756.1878-.3756.3756v1.033c0 .1878.1878.3756.3756.3756h1.033c.1878 0 .3756-.1878.3756-.3756z"/><path d="m85.5934 34.7893h-1.033c-.1878 0-.3756.1878-.3756.3756v1.033c0 .1878-.1878.3756-.3757.3756h-1.5025-1.8781-1.7842-1.4086c-.1878 0-.3756-.1878-.3756-.3756v-1.033c0-.1878-.1878-.3756-.3757-.3756h-1.4086-1.8781-.3756-1.033c-.1878 0-.3756.1878-.3756.3756v1.033c0 .1878.1878.3756.3756.3756h1.033c.1878 0 .3756.1878.3756.3757v1.4086 1.4086c0 .1878.1878.3756.3756.3756h1.033c.1878 0 .3756-.1878.3756-.3756v-1.033c0-.1878.1878-.3756.3757-.3756h1.4086 1.8781 1.4086c.1878 0 .3756.1878.3756.3756v1.033c0 .1878.1878.3756.3756.3756h1.5025 1.8782 1.4086c.1878 0 .3756-.1878.3756-.3756v-1.4086-1.7843-.3756-1.033c.0939-.2817-.0939-.3756-.3756-.3756z"/><path d="m69.9108 38.3572h1.0329c.1879 0 .3757-.1878.3757-.3756v-1.033c0-.1878-.1878-.3756-.3757-.3756h-1.0329c-.1878 0-.3757.1878-.3757.3756v1.033c0 .2817.1879.3756.3757.3756z"/><path d="m26.9952 38.3589h-1.033c-.1878 0-.3756.1878-.3756.3756v1.033c0 .1878.1878.3756.3756.3756h1.033c.1878 0 .3756-.1878.3756-.3756v-1.033c0-.1878-.0939-.3756-.3756-.3756z"/><path d="m18.638 40.2366c-.1878 0-.3756.1878-.3756.3756v1.033c0 .1878.1878.3756.3756.3756h1.033c.1878 0 .3756-.1878.3756-.3756v-1.033c0-.1878-.1878-.3756-.3756-.3756z"/><path d="m80.1462 40.2366h-1.033c-.1878 0-.3756.1878-.3756.3756v1.033c0 .1878.1878.3756.3756.3756h1.033c.1878 0 .3756-.1878.3756-.3756v-1.033c0-.1878-.1878-.3756-.3756-.3756z"/><path d="m86.063 41.6452c0 .1878.1878.3756.3756.3756h1.033c.1878 0 .3756-.1878.3756-.3756v-1.033c0-.1878-.1878-.3756-.3756-.3756h-1.033c-.1878 0-.3756.1878-.3756.3756z"/><path d="m89.2552 42.1138h-1.0329c-.1878 0-.3757.1878-.3757.3756v1.4086 1.4086c0 .1878.1879.3756.3757.3756h1.0329c.1879 0 .3757-.1878.3757-.3756v-1.4086-.3756-1.033c0-.2817-.0939-.3756-.3757-.3756z"/><path d="m26.9952 45.7756h-1.033c-.1878 0-.3756.1878-.3756.3757v1.4086 1.4086c0 .1878.1878.3756.3756.3756h1.033c.1878 0 .3756-.1878.3756-.3756v-1.4086-.3757-1.0329c0-.2818-.0939-.3757-.3756-.3757z"/><path d="m7.65062 49.4392h1.4086 1.87818 1.8781 1.4086c.1878 0 .3756.1878.3756.3757v1.0329c0 .1878-.1878.3757-.3756.3757h-1.033c-.1878 0-.3756.1878-.3756.3756v1.4086 1.4086c0 .1878-.1878.3756-.3756.3756h-1.033c-.1878 0-.3756.1878-.3756.3756v1.033c0 .1878.1878.3756.3756.3756h1.4086 1.8781.3756 1.033c.1878 0 .3756-.1878.3756-.3756v-1.033c0-.1878-.1878-.3756-.3756-.3756h-1.033c-.1878 0-.3756-.1878-.3756-.3756v-1.033c0-.1878.1878-.3756.3756-.3756h1.033c.1878 0 .3756.1878.3756.3756v1.033c0 .1878.1879.3756.3757.3756h1.0329c.1879 0 .3757-.1878.3757-.3756v-1.033c0-.1878.1878-.3756.3756-.3756h1.033c.1878 0 .3756.1878.3756.3756v1.033c0 .1878.1878.3756.3756.3756h1.033c.1878 0 .3756-.1878.3756-.3756v-1.033c0-.1878.1878-.3756.3756-.3756h1.4086 1.4086c.1879 0 .3757-.1878.3757-.3756v-1.4086-1.4086c0-.1879-.1878-.3757-.3757-.3757h-1.0329c-.1878 0-.3757-.1878-.3757-.3756v-1.5025-1.7842-1.4086c0-.1878.1879-.3756.3757-.3756h1.4086 1.8781 1.8781 1.5025c.1879 0 .3757-.1879.3757-.3757v-1.4086-1.8781-1.8781-.3757-1.0329c0-.1879-.1878-.3757-.3757-.3757h-1.0329c-.1878 0-.3757.1878-.3757.3757v1.4086 1.8781 1.4086c0 .1878-.1878.3756-.3756.3756h-1.4086-1.8781-1.4086c-.1878 0-.3756-.1878-.3756-.3756v-1.4086-.3756-1.033c0-.1878-.1879-.3756-.3757-.3756h-1.0329c-.1879 0-.3757.1878-.3757.3756v1.4086 1.4086c0 .1878-.1878.3756-.3756.3756h-1.033c-.1878 0-.3756.1878-.3756.3756v1.033c0 .1878-.1878.3756-.3756.3756h-1.033c-.1878 0-.3756-.1878-.3756-.3756v-1.033c0-.1878-.1878-.3756-.3756-.3756h-1.033c-.1878 0-.3756-.1878-.3756-.3756v-1.033c0-.1878.1878-.3756.3756-.3756h1.033c.1878 0 .3756-.1878.3756-.3756v-1.033c0-.1878.1878-.3756.3756-.3756h1.4086 1.4086c.1878 0 .3756-.1878.3756-.3757v-1.4086-1.4086c0-.1878.1878-.3756.3757-.3756h1.0329c.1878 0 .3757.1878.3757.3756v1.033c0 .1878.1878.3756.3756.3756h1.4086.3756 1.033c.1878 0 .3756-.1878.3756-.3756v-1.033c0-.1878-.1878-.3756-.3756-.3756h-1.033c-.1878 0-.3756-.1878-.3756-.3756v-1.4086-1.4086c0-.1878.1878-.3756.3756-.3756h1.033c.1878 0 .3756-.1878.3756-.3757v-1.0329c0-.1878-.1878-.3757-.3756-.3757h-1.033c-.1878 0-.3756-.1878-.3756-.3756v-1.4086c0-.1878-.1878-.3756-.3756-.3756h-1.4086-.3757-1.0329c-.1879 0-.3757.1878-.3757.3756v1.033c0 .1878.1878.3756.3757.3756h1.0329c.1878 0 .3757.1878.3757.3756v1.033c0 .1878-.1879.3756-.3757.3756h-1.0329c-.1879 0-.3757.1879-.3757.3757v1.1268c0 .1879-.1878.3757-.3756.3757h-1.4086-1.8781-1.4086c-.1878 0-.3757-.1878-.3757-.3757v-1.0329c0-.1878-.1878-.3757-.3756-.3757h-1.0329c-.1879 0-.3757.1879-.3757.3757v1.0329c0 .1879-.1878.3757-.3756.3757h-1.033c-.1878 0-.3756.1878-.3756.3756v1.033c0 .1878.1878.3756.3756.3756h1.4086 1.4086c.1878 0 .3756.1878.3756.3756v1.4086 1.4086c0 .1878-.1878.3756-.3756.3756h-1.0329c-.1879 0-.3757-.1878-.3757-.3756v-1.033c0-.1878-.1878-.3756-.3756-.3756h-1.033c-.1878 0-.3756.1878-.3756.3756v1.033c0 .1878-.1878.3756-.3756.3756h-1.033c-.1878 0-.3756-.1878-.3756-.3756v-1.033c0-.1878.1878-.3756.3756-.3756h1.033c.1878 0 .3756-.1878.3756-.3756v-1.033c0-.1878-.1878-.3756-.3756-.3756h-1.6903-1.40865c-.18781 0-.37562.1878-.37562.3756v1.4086 1.7842 1.8782 1.4086c0 .1878.18781.3756.37562.3756h1.03295c.1878 0 .3757-.1878.3757-.3756v-1.033c0-.1878.1878-.3756.3756-.3756h1.5025 1.4086c.1878 0 .3756.1878.3756.3756v1.4086 1.8781 1.4086c0 .1879-.1878.3757-.3756.3757h-1.4086-1.8781-1.40865c-.18781 0-.37562-.1878-.37562-.3757v-1.0329c0-.1878-.18782-.3757-.37563-.3757h-1.12688c-.18781 0-.37563.1879-.37563.3757v1.4086 1.972 1.4086c0 .2817.18782.4695.37563.4695zm12.48958-3.6623h1.4086c.1878 0 .3756.1878.3756.3756v1.4086 1.8781 1.4086c0 .1878-.1878.3757-.3756.3757h-1.4086-1.8781-1.4086c-.1878 0-.3757-.1879-.3757-.3757v-1.4086-1.8781-1.4086c0-.1878.1879-.3756.3757-.3756h1.4086zm-.4695-10.9871c.1878 0 .3756.1878.3756.3756v1.033c0 .1878-.1878.3756-.3756.3756h-1.033c-.1878 0-.3756-.1878-.3756-.3756v-1.033c0-.1878.1878-.3756.3756-.3756z"/><path d="m18.2624 48.9711c0 .1878.1878.3756.3756.3756h1.033c.1878 0 .3756-.1878.3756-.3756v-1.033c0-.1878-.1878-.3756-.3756-.3756h-1.033c-.1878 0-.3756.1878-.3756.3756z"/><path d="m32.9113 47.5599v-.3757-1.0329c0-.1879-.1878-.3757-.3756-.3757h-1.033c-.1878 0-.3756.1878-.3756.3757v1.4086 1.4086c0 .1878.1878.3756.3756.3756h1.033c.1878 0 .3756-.1878.3756-.3756z"/><path d="m78.2681 47.5625h-1.0329c-.1878 0-.3757.1878-.3757.3756v1.033c0 .1878.1879.3756.3757.3756h1.0329c.1879 0 .3757-.1878.3757-.3756v-1.033c.0939-.1878-.0939-.3756-.3757-.3756z"/><path d="m89.2551 49.4382h-1.0329c-.1878 0-.3757-.1878-.3757-.3756v-1.033c0-.1878-.1878-.3756-.3756-.3756h-1.0329c-.1879 0-.3757-.1878-.3757-.3756v-1.4086-1.8782-1.4086c0-.1878-.1878-.3756-.3756-.3756h-1.5025-1.4086c-.1878 0-.3756.1878-.3756.3756v1.033c0 .1878-.1878.3756-.3757.3756h-1.4086-1.7842-1.8781-1.4086c-.1878 0-.3756-.1878-.3756-.3756v-1.033c0-.1878-.1879-.3756-.3757-.3756h-1.0329c-.1879 0-.3757-.1878-.3757-.3756v-1.033c0-.1878-.1878-.3756-.3756-.3756h-1.4086-.3756-1.033c-.1878 0-.3756.1878-.3756.3756v1.033c0 .1878.1878.3756.3756.3756h1.033c.1878 0 .3756.1878.3756.3756v1.033c0 .1878-.1878.3756-.3756.3756h-1.033c-.1878 0-.3756-.1878-.3756-.3756v-1.033c0-.1878-.1878-.3756-.3756-.3756h-1.4086-1.4086c-.1879 0-.3757-.1878-.3757-.3756v-1.033c0-.1878.1878-.3756.3757-.3756h1.4086.3756.7512c.1879 0 .3757-.1878.3757-.3756v-1.033c0-.1878-.1878-.3756-.3757-.3756h-1.4086-1.4086c-.1878 0-.3756-.1879-.3756-.3757v-1.0329c0-.1878-.1878-.3757-.3756-.3757h-1.1269c-.1878 0-.3756.1879-.3756.3757v1.4086 1.8781 1.8781 1.8782 1.4086c0 .1878.1878.3756.3756.3756h1.033c.1878 0 .3756.1878.3756.3756v1.033c0 .1878.1878.3756.3756.3756h1.033c.1878 0 .3756-.1878.3756-.3756v-1.033c0-.1878.1878-.3756.3757-.3756h1.1268c.1879 0 .3757.1878.3757.3756v1.033c0 .1878-.1878.3756-.3757.3756h-1.0329c-.1878 0-.3757.1878-.3757.3756v1.033c0 .1878-.1878.3756-.3756.3756h-1.033c-.1878 0-.3756-.1878-.3756-.3756v-1.033c0-.1878-.1878-.3756-.3756-.3756h-1.1269c-.1878 0-.3756.1878-.3756.3756v1.2208 1.8782 1.4086c0 .1878.1878.3756.3756.3756h1.033c.1878 0 .3756.1878.3756.3756v1.033c0 .1878.1878.3756.3756.3756h1.033c.1878 0 .3756-.1878.3756-.3756v-1.033c0-.1878.1878-.3756.3757-.3756h1.1268c.1879 0 .3757.1878.3757.3756v1.033c0 .1878.1878.3756.3756.3756h1.4086.3756 1.033c.1878 0 .3756-.1878.3756-.3756v-1.033c0-.1878-.1878-.3756-.3756-.3756h-1.033c-.1878 0-.3756-.1878-.3756-.3756v-1.033c0-.1878-.1878-.3756-.3756-.3756h-1.033c-.1878 0-.3756-.1879-.3756-.3757v-1.0329c0-.1878.1878-.3757.3756-.3757h1.033c.1878 0 .3756.1879.3756.3757v1.0329c0 .1878.1878.3757.3756.3757h1.033c.1878 0 .3756.1878.3756.3756v1.033c0 .1878.1878.3756.3756.3756h1.033c.1878 0 .3756.1878.3756.3756v1.033c0 .1878.1879.3756.3757.3756h1.0329c.1879 0 .3757.1878.3757.3756v1.033c0 .1878.1878.3756.3756.3756h1.033c.1878 0 .3756-.1878.3756-.3756v-1.4086-1.4086c0-.1878.1878-.3756.3756-.3756h1.4086 1.4086c.1878 0 .3756.1878.3756.3756v1.033c0 .1878.1879.3756.3757.3756h1.7842 1.8781 1.4086c.1878 0 .3756-.1878.3756-.3756v-1.4086-1.4086c0-.1878.1879-.3756.3757-.3756h1.0329c.1879 0 .3757-.1879.3757-.3757v-1.0329c0-.3757-.0939-.4696-.3757-.4696zm-10.5175 1.7843h-1.8781-1.4086c-.1878 0-.3756-.1879-.3756-.3757v-1.4086-1.8781-1.4086c0-.1878.1878-.3756.3756-.3756h1.4086 1.8781 1.4086c.1878 0 .3756.1878.3756.3756v1.4086 1.8781 1.4086c0 .1878-.1878.3757-.3756.3757zm5.8222 1.8781c-.1878 0-.3756-.1878-.3756-.3756v-1.033c0-.1878-.1878-.3756-.3756-.3756h-1.033c-.1878 0-.3756-.1879-.3756-.3757v-1.0329c0-.1878.1878-.3757.3756-.3757h1.033c.1878 0 .3756.1879.3756.3757v1.0329c0 .1878.1878.3757.3756.3757h1.033c.1878 0 .3756.1878.3756.3756v1.033c0 .1878-.1878.3756-.3756.3756z"/><path d="m27.3715 52.6332c0 .1878.1878.3756.3756.3756h1.033c.1878 0 .3756-.1878.3756-.3756v-1.033c0-.1878-.1878-.3756-.3756-.3756h-.9391c-.1878 0-.3756.1878-.3756.3756v1.033z"/><path d="m25.5866 54.8843v1.4086c0 .1878.1878.3756.3756.3756h1.4086.4696 1.0329c.1878 0 .3757-.1878.3757-.3756v-1.033c0-.1878-.1879-.3756-.3757-.3756h-1.0329c-.1879 0-.3757-.1878-.3757-.3756v-1.033c0-.1878-.1878-.3756-.3756-.3756h-1.1269c-.1878 0-.3756.1878-.3756.3756z"/><path d="m32.5357 53.1001h-1.033c-.1878 0-.3756.1878-.3756.3756v1.033c0 .1878.1878.3756.3756.3756h1.033c.1878 0 .3756-.1878.3756-.3756v-1.033c0-.2817-.1878-.3756-.3756-.3756z"/><path d="m7.65062 56.7635h1.03297c.18782 0 .37563-.1878.37563-.3757v-1.0329c0-.1878-.18781-.3757-.37563-.3757h-1.03297c-.18781 0-.37563.1879-.37563.3757v1.0329c0 .1879.18782.3757.37563.3757z"/><path d="m19.671 54.8862h-1.033c-.1878 0-.3756.1878-.3756.3757v1.0329c0 .1878.1878.3757.3756.3757h1.033c.1878 0 .3756-.1879.3756-.3757v-1.0329c.0939-.1879-.0939-.3757-.3756-.3757z"/><path d="m80.898 56.7635h1.033c.1878 0 .3756-.1878.3756-.3757v-1.0329c0-.1878-.1878-.3757-.3756-.3757h-1.033c-.1878 0-.3756.1879-.3756.3757v1.0329c0 .1879.1878.3757.3756.3757z"/><path d="m20.1403 58.1723c0 .1878.1878.3756.3756.3756h1.033c.1878 0 .3756-.1878.3756-.3756v-1.033c0-.1878-.1878-.3756-.3756-.3756h-1.033c-.1878 0-.3756.1878-.3756.3756z"/><path d="m69.1597 56.7637h-1.4086-.4695-1.033c-.1878 0-.3756.1878-.3756.3756v1.033c0 .1878.1878.3756.3756.3756h1.4086.3757 1.1268c.1879 0 .3757-.1878.3757-.3756v-1.033c0-.2817-.1878-.3756-.3757-.3756z"/><path d="m73.5727 58.5477h1.033c.1878 0 .3756-.1878.3756-.3756v-1.4086-.3757-1.0329c0-.1878-.1878-.3757-.3756-.3757h-1.033c-.1878 0-.3756.1879-.3756.3757v1.4086 1.4086c0 .1878.1878.3756.3756.3756z"/><path d="m89.2557 56.7637h-1.4086-1.8781-1.4086c-.1878 0-.3756.1878-.3756.3756v1.033c0 .1878-.1879.3756-.3757.3756h-1.0329c-.1879 0-.3757.1878-.3757.3756v1.4086 1.4086c0 .1878.1878.3756.3757.3756h1.4086 1.4086c.1878 0 .3756-.1878.3756-.3756v-1.4086-1.4086c0-.1878.1878-.3756.3756-.3756h1.4086.3756 1.033c.1878 0 .3756-.1878.3756-.3756v-1.033c.0939-.2817 0-.3756-.2817-.3756z"/><path d="m18.2624 59.9574c0 .1878.1878.3757.3756.3757h1.033c.1878 0 .3756-.1879.3756-.3757v-1.0329c0-.1879-.1878-.3757-.3756-.3757h-1.033c-.1878 0-.3756.1878-.3756.3757z"/><path d="m65.4968 58.5488h-1.033c-.1878 0-.3756.1878-.3756.3757v1.0329c0 .1878.1878.3757.3756.3757h1.033c.1878 0 .3756-.1879.3756-.3757v-1.0329c0-.1879-.1878-.3757-.3756-.3757z"/><path d="m72.8215 58.5479h-1.4086-.3757-1.0329c-.1878 0-.3757.1878-.3757.3756v1.033c0 .1878.1879.3756.3757.3756h1.0329c.1879 0 .3757.1878.3757.3757v1.0329c0 .1878.1878.3757.3756.3757h1.033c.1878 0 .3756.1878.3756.3756v1.4086 1.4086c0 .1878.1878.3756.3756.3756h1.033c.1878 0 .3756-.1878.3756-.3756v-1.4086-1.3147c0-.1878.1878-.3756.3756-.3756h1.033c.1878 0 .3756.1878.3756.3756v1.033c0 .1878.1879.3756.3757.3756h1.0329c.1879 0 .3757-.1878.3757-.3756v-1.033c0-.1878.1878-.3756.3756-.3756h1.033c.1878 0 .3756-.1879.3756-.3757v-1.4086-1.8781-.3756-1.033c0-.1878-.1878-.3756-.3756-.3756h-1.033c-.1878 0-.3756.1878-.3756.3756v1.4086 1.4086c0 .1878-.1878.3756-.3757.3756h-1.4086-1.8781-1.4086c-.1878 0-.3756-.1878-.3756-.3756v-1.033c.0939-.1878-.0939-.3756-.2817-.3756z"/><path d="m7.65062 62.2098h1.4086 1.40858c.1878 0 .3756.1878.3756.3756v1.4086 1.4086c0 .1878.1879.3757.3757.3757h1.0329c.1879 0 .3757.1878.3757.3756v1.1269c0 .1878.1878.3756.3756.3756h1.4086.3756 1.033c.1878 0 .3756-.1878.3756-.3756v-1.033c0-.1878-.1878-.3756-.3756-.3756h-1.033c-.1878 0-.3756-.1878-.3756-.3757v-1.4086-1.5025c0-.1878-.1878-.3756-.3756-.3756h-1.033c-.1878 0-.3756-.1878-.3756-.3756v-1.4086-1.4086c0-.1878-.1878-.3756-.3757-.3756h-1.3146-1.87818-1.4086c-.18781 0-.37563.1878-.37563.3756v1.4086 1.4086c0 .1878.18782.3756.37563.3756z"/><path d="m16.3838 60.8029c0-.1878-.1878-.3757-.3757-.3757h-1.0329c-.1878 0-.3757.1879-.3757.3757v1.0329c0 .1879.1879.3757.3757.3757h1.0329c.1879 0 .3757-.1878.3757-.3757z"/><path d="m23.8022 60.8029c0-.1878-.1878-.3757-.3756-.3757h-1.033c-.1878 0-.3756.1879-.3756.3757v1.0329c0 .1879.1878.3757.3756.3757h1.033c.1878 0 .3756-.1878.3756-.3757z"/><path d="m25.962 62.2098h1.033c.1878 0 .3756-.1878.3756-.3756v-1.033c0-.1878.1878-.3756.3756-.3756h1.4086.3757 1.1268c.1879 0 .3757-.1878.3757-.3756v-1.033c0-.1878-.1878-.3756-.3757-.3756h-1.4086-1.8781-1.8781-.3756-1.033c-.1878 0-.3756.1878-.3756.3756v1.033c0 .1878.1878.3756.3756.3756h1.033c.1878 0 .3756.1878.3756.3756v1.033c.0939.1878.2817.3756.4695.3756z"/><path d="m65.873 61.8358c0 .1879.1878.3757.3756.3757h1.4086.3757 1.1268c.1879 0 .3757-.1878.3757-.3757v-1.0329c0-.1878-.1878-.3757-.3757-.3757h-1.4086-.4695-1.033c-.1878 0-.3756.1879-.3756.3757z"/><path d="m16.8534 64.0888h1.4086.3756 1.033c.1878 0 .3756-.1878.3756-.3756v-1.1269c0-.1878-.1878-.3756-.3756-.3756h-1.4086-.3756-1.033c-.1878 0-.3756.1878-.3756.3756v1.033c-.094.2817.0939.4695.3756.4695z"/><path d="m69.9108 64.0888h1.0329c.1879 0 .3757-.1878.3757-.3756v-1.1269c0-.1878-.1878-.3756-.3757-.3756h-1.0329c-.1878 0-.3757.1878-.3757.3756v1.033c0 .2817.1879.4695.3757.4695z"/><path d="m80.5224 63.6193c0 .1878.1878.3756.3756.3756h1.033c.1878 0 .3756-.1878.3756-.3756v-1.033c0-.1878-.1878-.3756-.3756-.3756h-1.033c-.1878 0-.3756.1878-.3756.3756z"/><path d="m86.4386 64.0888h1.033c.1878 0 .3756-.1878.3756-.3756v-1.1269c0-.1878-.1878-.3756-.3756-.3756h-1.033c-.1878 0-.3756.1878-.3756.3756v1.033c0 .2817.0939.4695.3756.4695z"/><path d="m7.65062 65.8746h1.03297c.18782 0 .37563-.1879.37563-.3757v-1.0329c0-.1879-.18781-.3757-.37563-.3757h-1.03297c-.18781 0-.37563.1878-.37563.3757v1.0329c0 .1878.18782.3757.37563.3757z"/><path d="m23.8022 64.466c0-.1879-.1878-.3757-.3756-.3757h-1.033c-.1878 0-.3756.1878-.3756.3757v1.0329c0 .1878.1878.3757.3756.3757h1.033c.1878 0 .3756-.1879.3756-.3757z"/><path d="m40.6117 65.8746h1.033c.1878 0 .3756-.1879.3756-.3757v-1.0329c0-.1879-.1878-.3757-.3756-.3757h-1.033c-.1878 0-.3756.1878-.3756.3757v1.0329c0 .1878.1878.3757.3756.3757z"/><path d="m47.1849 64.0903h-1.5025-.3756-1.033c-.1878 0-.3756.1878-.3756.3757v1.0329c0 .1878.1878.3757.3756.3757h1.4086.3756 1.033c.1878 0 .3756-.1879.3756-.3757v-1.0329c.0939-.2818-.0939-.3757-.2817-.3757z"/><path d="m66.2486 65.8746h1.4086.3757 1.1268c.1879 0 .3757-.1879.3757-.3757v-1.0329c0-.1879-.1878-.3757-.3757-.3757h-1.4086-.4695-1.033c-.1878 0-.3756.1878-.3756.3757v1.0329c0 .1878.1878.3757.3756.3757z"/><path d="m85.5934 64.0903h-1.033c-.1878 0-.3756.1878-.3756.3757v1.0329c0 .1878-.1879.3757-.3757.3757h-1.0329c-.1879 0-.3757.1878-.3757.3756v1.033c0 .1878.1878.3756.3757.3756h1.0329c.1878 0 .3757.1878.3757.3756v1.1269c0 .1878.1878.3756.3756.3756h1.033c.1878 0 .3756-.1878.3756-.3756v-1.033c0-.1878.1878-.3756.3756-.3756h1.033c.1878 0 .3756-.1878.3756-.3756v-1.033c0-.1878-.1878-.3756-.3756-.3756h-1.033c-.1878 0-.3756-.1878-.3756-.3757v-1.1268c.0939-.2818-.0939-.3757-.3756-.3757z"/><path d="m89.2552 64.0903h-1.0329c-.1878 0-.3757.1878-.3757.3757v1.0329c0 .1878.1879.3757.3757.3757h1.0329c.1879 0 .3757-.1879.3757-.3757v-1.0329c0-.2818-.0939-.3757-.3757-.3757z"/><path d="m10.5619 65.8728h-1.03294c-.18781 0-.37562.1878-.37562.3756v1.033c0 .1878.18781.3756.37562.3756h1.03294c.1878 0 .3757-.1878.3757-.3756v-1.033c0-.1878-.1879-.3756-.3757-.3756z"/><path d="m20.1402 66.2484c0-.1878-.1878-.3756-.3757-.3756h-1.0329c-.1878 0-.3757.1878-.3757.3756v1.033c0 .1878.1879.3756.3757.3756h1.0329c.1879 0 .3757-.1878.3757-.3756z"/><path d="m42.49 67.7496h1.033c.1878 0 .3756-.1879.3756-.3757v-1.0329c0-.1879-.1878-.3757-.3756-.3757h-1.033c-.1878 0-.3756.1878-.3756.3757v.939c0 .2817.0939.4696.3756.4696z"/><path d="m60.8016 67.7527h1.033c.1878 0 .3756-.1878.3756-.3756v-1.033c0-.1878.1878-.3756.3756-.3756h1.033c.1878 0 .3756-.1878.3756-.3757v-1.1268c0-.1879-.1878-.3757-.3756-.3757h-1.4086-1.4086c-.1878 0-.3756.1878-.3756.3757v1.4086 1.4086c0 .2817.0939.4695.3756.4695z"/><path d="m76.8598 66.2484c0-.1878-.1878-.3756-.3756-.3756h-1.033c-.1878 0-.3756.1878-.3756.3756v1.033c0 .1878.1878.3756.3756.3756h1.033c.1878 0 .3756-.1878.3756-.3756z"/><path d="m10.9371 69.1608c0 .1878.1878.3756.3756.3756h1.033c.1878 0 .3756-.1878.3756-.3756v-1.033c0-.1878-.1878-.3756-.3756-.3756h-1.033c-.1878 0-.3756.1878-.3756.3756z"/><path d="m16.384 69.1608c0 .1878.1878.3756.3756.3756h1.033c.1878 0 .3756-.1878.3756-.3756v-1.033c0-.1878-.1878-.3756-.3756-.3756h-1.033c-.1878 0-.3756.1878-.3756.3756z"/><path d="m20.5159 69.5364h1.033c.1878 0 .3756-.1878.3756-.3756v-1.033c0-.1878-.1878-.3756-.3756-.3756h-1.033c-.1878 0-.3756.1878-.3756.3756v1.033c0 .1878.0939.3756.3756.3756z"/><path d="m54.8856 69.1608c0 .1878.1878.3756.3756.3756h1.4086 1.8782.3756 1.033c.1878 0 .3756-.1878.3756-.3756v-1.033c0-.1878-.1878-.3756-.3756-.3756h-1.4086-1.8782-.3756-1.033c-.1878 0-.3756.1878-.3756.3756z"/><path d="m77.2352 69.5352h1.4086 1.4086c.1878 0 .3756-.1879.3756-.3757v-1.4086-.4695-1.033c0-.1878-.1878-.3756-.3756-.3756h-1.033c-.1878 0-.3756.1878-.3756.3756v1.033c0 .1878-.1878.3756-.3757.3756h-1.0329c-.1878 0-.3757.1878-.3757.3757v1.1268c0 .1878.1879.3757.3757.3757z"/><path d="m18.638 71.4119h1.033c.1878 0 .3756-.1878.3756-.3756v-1.033c0-.1878-.1878-.3756-.3756-.3756h-1.033c-.1878 0-.3756.1878-.3756.3756v1.033c0 .1878.1878.3756.3756.3756z"/><path d="m23.3331 69.5352h-1.033c-.1878 0-.3756.1878-.3756.3756v1.4086 1.4086c0 .1878.1878.3756.3756.3756h1.033c.1878 0 .3756-.1878.3756-.3756v-1.4086-.3756-1.033c.0939-.1878-.0939-.3756-.3756-.3756z"/><path d="m26.9956 69.5352h-1.0329c-.1879 0-.3757.1878-.3757.3756v1.4086 1.4086c0 .1878-.1878.3756-.3756.3756h-1.033c-.1878 0-.3756.1878-.3756.3756v1.033c0 .1878.1878.3756.3756.3756h1.4086 1.4086c.1878 0 .3757-.1878.3757-.3756v-1.4086-1.8781-.3757-1.0329c0-.0939-.0939-.2817-.3757-.2817z"/><path d="m29.6245 71.4119h1.033c.1878 0 .3756-.1878.3756-.3756v-1.033c0-.1878-.1878-.3756-.3756-.3756h-1.033c-.1878 0-.3756.1878-.3756.3756v1.033c0 .1878.1878.3756.3756.3756z"/><path d="m68.1267 71.4147h1.4086.3756 1.033c.1878 0 .3756-.1878.3756-.3756v-1.033c0-.1878-.1878-.3756-.3756-.3756h-1.033c-.1878 0-.3756-.1878-.3756-.3757v-1.0329c0-.1878-.1878-.3757-.3756-.3757h-1.4086-1.4086c-.1878 0-.3756-.1878-.3756-.3756v-1.033c0-.1878-.1878-.3756-.3757-.3756h-1.1268c-.1879 0-.3757.1878-.3757.3756v.8452c0 .1878-.1878.3756-.3756.3756h-1.1269c-.1878 0-.3756.1878-.3756.3757v1.1268c0 .1878.1878.3757.3756.3757h1.4086 1.8782 1.4086c.1878 0 .3756.1878.3756.3756v1.033c.0939.2817.1878.4695.4695.4695z"/><path d="m73.5727 71.4147h1.033c.1878 0 .3756-.1878.3756-.3756v-1.4086-1.4086c0-.1878-.1878-.3757-.3756-.3757h-1.033c-.1878 0-.3756-.1878-.3756-.3756v-1.033c0-.1878-.1878-.3756-.3756-.3756h-1.4086-.3757-1.0329c-.1878 0-.3757.1878-.3757.3756v.8452c0 .1878.1879.3756.3757.3756h1.0329c.1879 0 .3757.1878.3757.3757v1.1268c0 .1878.1878.3757.3756.3757h1.033c.1878 0 .3756.1878.3756.3756v1.033c0 .2817.1878.4695.3756.4695z"/><path d="m80.898 71.4119h1.4086.3757 1.0329c.1878 0 .3757-.1878.3757-.3756v-1.033c0-.1878-.1879-.3756-.3757-.3756h-1.4086-.3756-1.033c-.1878 0-.3756.1878-.3756.3756v1.033c0 .1878.1878.3756.3756.3756z"/><path d="m62.5862 73.1988h1.033c.1878 0 .3756-.1878.3756-.3756v-1.033c0-.1878-.1878-.3756-.3756-.3756h-1.033c-.1878 0-.3756.1878-.3756.3756v1.033c0 .1878.1878.3756.3756.3756z"/><path d="m89.2555 71.4146h-1.4086-1.8781-.3757-1.0329c-.1878 0-.3757.1878-.3757.3756v1.0329c0 .1879.1879.3757.3757.3757h1.0329c.1879 0 .3757.1878.3757.3756v1.033c0 .1878-.1878.3756-.3757.3756h-1.0329c-.1878 0-.3757.1878-.3757.3756v1.033c0 .1878.1879.3756.3757.3756h1.5025 1.8781.3756 1.033c.1878 0 .3756-.1878.3756-.3756v-1.033c0-.1878-.1878-.3756-.3756-.3756h-1.033c-.1878 0-.3756-.1878-.3756-.3756v-1.033c0-.1878.1878-.3756.3756-.3756h1.033c.1878 0 .3756-.1878.3756-.3757v-1.0329c-.0939-.2817-.1878-.3756-.4695-.3756z"/><path d="m7.65062 75.0743h1.03297c.18782 0 .37563-.1878.37563-.3757v-1.0329c0-.1878-.18781-.3757-.37563-.3757h-1.03297c-.18781 0-.37563.1879-.37563.3757v1.0329c0 .1879.18782.3757.37563.3757z"/><path d="m13.1913 75.0743h1.4086 1.4086c.1878 0 .3756-.1878.3756-.3757v-1.4086-1.8781-.3756-1.033c0-.1878-.1878-.3756-.3756-.3756h-1.033c-.1878 0-.3756.1878-.3756.3756v1.033c0 .1878-.1878.3756-.3756.3756h-1.4086-1.8781-.3757-1.03294c-.18781 0-.37562.1878-.37562.3756v1.033c0 .1878.18781.3756.37562.3756h1.40864 1.4086c.1878 0 .3756.1878.3756.3757v1.0329c.0939.2818.1878.4696.4695.4696z"/><path d="m21.9244 73.5726c0-.1878-.1878-.3756-.3756-.3756h-1.4086-.3757-1.0329c-.1878 0-.3757.1878-.3757.3756v1.033c0 .1878.1879.3756.3757.3756h1.4086.3756 1.033c.1878 0 .3756-.1878.3756-.3756z"/><path d="m64.4639 76.8606h1.4086.3756 1.033c.1878 0 .3756-.1878.3756-.3756v-1.033c0-.1878-.1878-.3756-.3756-.3756h-1.4086-.3756-1.033c-.1878 0-.3756.1878-.3756.3756v1.033c-.0939.1878.0939.3756.3756.3756z"/><path d="m48.9699 76.8594h-1.033c-.1878 0-.3756.1878-.3756.3756v1.033c0 .1878.1878.3756.3756.3756h1.033c.1878 0 .3756-.1878.3756-.3756v-1.033c.0939-.1878-.0939-.3756-.3756-.3756z"/><path d="m78.2681 76.8594h-1.0329c-.1878 0-.3757.1878-.3757.3756v1.033c0 .1878.1879.3756.3757.3756h1.0329c.1879 0 .3757-.1878.3757-.3756v-1.033c.0939-.1878-.0939-.3756-.3757-.3756z"/><path d="m89.2557 78.7365h-1.4086-1.4086c-.1878 0-.3756.1878-.3756.3756v1.033c0 .1878-.1879.3756-.3757.3756h-1.0329c-.1878 0-.3757.1879-.3757.3757v1.0329c0 .1879-.1878.3757-.3756.3757h-1.033c-.1878 0-.3756.1878-.3756.3756v1.033c0 .1878-.1878.3756-.3756.3756h-1.033c-.1878 0-.3756-.1878-.3756-.3756v-1.033c0-.1878.1878-.3756.3756-.3756h1.033c.1878 0 .3756-.1878.3756-.3757v-1.4086-1.4086c0-.1878.1878-.3756.3756-.3756h1.033c.1878 0 .3756-.1878.3756-.3756v-1.033c0-.1878-.1878-.3756-.3756-.3756h-1.033c-.1878 0-.3756-.1878-.3756-.3756v-1.033c0-.1878.1878-.3756.3756-.3756h1.033c.1878 0 .3756-.1879.3756-.3757v-1.0329c0-.1878-.1878-.3757-.3756-.3757h-1.5964-1.8781-1.4086c-.1878 0-.3757-.1878-.3757-.3756v-1.033c0-.1878-.1878-.3756-.3756-.3756h-1.4086-1.4086c-.1878 0-.3756.1878-.3756.3756v1.033c0 .1878-.1878.3756-.3756.3756h-1.4086-1.8782-1.7842-.4695-1.033c-.1878 0-.3756.1879-.3756.3757v1.0329c0 .1878.1878.3757.3756.3757h1.4086 1.7842 1.4086c.1878 0 .3756.1878.3756.3756v1.033c0 .1878-.1878.3756-.3756.3756h-1.033c-.1878 0-.3756.1878-.3756.3756v1.4086 1.4086c0 .1878.1878.3756.3756.3756h1.033c.1878 0 .3756.1879.3756.3757v1.4086 1.4086c0 .1878.1879.3756.3757.3756h1.0329c.1879 0 .3757.1878.3757.3756v1.5964 1.4086c0 .1878.1878.3757.3756.3757h1.033c.1878 0 .3756-.1879.3756-.3757v-1.0329c0-.1879.1878-.3757.3756-.3757h1.033c.1878 0 .3756.1878.3756.3757v1.0329c0 .1878.1878.3757.3757.3757h1.4086 1.4086c.1878 0 .3756-.1879.3756-.3757v-1.0329c0-.1879.1878-.3757.3756-.3757h1.033c.1878 0 .3756-.1878.3756-.3756v-1.033c0-.1878.1878-.3756.3756-.3756h1.8782 1.4086c.1878 0 .3756-.1878.3756-.3756v-1.4086-1.4086c0-.1878.1878-.3756.3756-.3756h1.033c.1878 0 .3756-.1879.3756-.3757v-1.0329c0-.4696-.0939-.5635-.3756-.5635zm-9.109-3.6623c.1879 0 .3757.1878.3757.3756v1.4086 1.8781 1.4086c0 .1878-.1878.3756-.3757.3756h-1.4086-1.8781-1.4086c-.1878 0-.3756-.1878-.3756-.3756v-1.4086-1.8781-1.4086c0-.1878.1878-.3756.3756-.3756h1.4086 1.8781zm-2.9111 9.1089c-.1878 0-.3756-.1878-.3756-.3756v-1.033c0-.1878.1878-.3756.3756-.3756h1.033c.1878 0 .3756.1878.3756.3756v1.033c0 .1878-.1878.3756-.3756.3756z"/><path d="m40.6117 82.4007h1.033c.1878 0 .3756-.1878.3756-.3756v-1.033c0-.1878-.1878-.3756-.3756-.3756h-1.033c-.1878 0-.3756.1878-.3756.3756v1.033c0 .1878.1878.3756.3756.3756z"/><path d="m58.5476 80.523v-1.4086c0-.1878-.1879-.3756-.3757-.3756h-1.4086-.3756-1.033c-.1878 0-.3756.1878-.3756.3756v1.033c0 .1878.1878.3756.3756.3756h1.033c.1878 0 .3756.1878.3756.3756v1.033c0 .1878.1878.3756.3757.3756h1.0329c.1878 0 .3757-.1878.3757-.3756z"/><path d="m27.3715 83.8095c0 .1878.1878.3756.3756.3756h1.033c.1878 0 .3756-.1878.3756-.3756v-1.033c0-.1878-.1878-.3756-.3756-.3756h-.9391c-.1878 0-.3756.1878-.3756.3756v1.033z"/><path d="m25.5864 86.4369c0-.1879.1879-.3757.3757-.3757h1.0329c.1879 0 .3757-.1878.3757-.3756v-1.033c0-.1878-.1878-.3756-.3757-.3756h-1.4086-1.4086c-.1878 0-.3756-.1878-.3756-.3756v-1.4086-1.4086c0-.1878.1878-.3756.3756-.3756h1.033c.1878 0 .3756.1878.3756.3756v1.0329c0 .1879.1879.3757.3757.3757h1.0329c.1879 0 .3757-.1878.3757-.3757v-1.4085-1.8782-1.4086c0-.1878-.1878-.3756-.3757-.3756h-1.4086-1.4086c-.1878 0-.3756-.1878-.3756-.3756v-1.033c0-.1878-.1878-.3756-.3756-.3756h-1.033c-.1878 0-.3756.1878-.3756.3756v1.4086 1.8781 1.8782 1.8781 1.8781 1.5025 1.4086c0 .1878.1878.3757.3756.3757h1.4086 1.4086c.1878 0 .3756-.1879.3756-.3757z"/><path d="m67.7511 86.4386c0-.1878-.1878-.3756-.3756-.3756h-1.033c-.1878 0-.3756-.1878-.3756-.3757v-1.0329c0-.1878.1878-.3757.3756-.3757h.9391c.1878 0 .3756.1879.3756.3757v1.0329c0 .1879.1878.3757.3756.3757h1.4086 1.7843.3756 1.033c.1878 0 .3756-.1878.3756-.3757v-1.0329c0-.1878-.1878-.3757-.3756-.3757h-1.033c-.1878 0-.3756-.1878-.3756-.3756v-1.4086-.3756-1.033c0-.1878-.1879-.3756-.3757-.3756h-1.0329c-.1879 0-.3757.1878-.3757.3756v1.033c0 .1878-.1878.3756-.3756.3756h-1.4086-1.8781-1.8782-1.3146c-.1879 0-.3757-.1878-.3757-.3756v-1.033c0-.1878.1878-.3756.3757-.3756h1.4086 1.8781 1.8781.3756 1.033c.1878 0 .3756-.1878.3756-.3756v-1.033c0-.1878-.1878-.3756-.3756-.3756h-1.4086-1.8781-1.8781-1.4086c-.1879 0-.3757-.1878-.3757-.3757v-1.4086-1.7842-.3756-1.033c0-.1878-.1878-.3756-.3756-.3756h-1.033c-.1878 0-.3756.1878-.3756.3756v1.033c0 .1878-.1878.3756-.3756.3756h-1.033c-.1878 0-.3756-.1878-.3756-.3756v-1.033c0-.1878-.1878-.3756-.3757-.3756h-1.0329c-.1878 0-.3757.1878-.3757.3756v1.033c0 .1878-.1878.3756-.3756.3756h-1.4086-1.4086c-.1878 0-.3756-.1878-.3756-.3756v-1.033c0-.1878-.1878-.3756-.3756-.3756h-1.033c-.1878 0-.3756-.1878-.3756-.3756v-1.033c0-.1878.1878-.3756.3756-.3756h1.033c.1878 0 .3756-.1878.3756-.3757v-1.4086-1.4086c0-.1878.1878-.3756.3756-.3756h1.033c.1878 0 .3756-.1878.3756-.3756v-1.033c0-.1878-.1878-.3756-.3756-.3756h-1.033c-.1878 0-.3756-.1878-.3756-.3756v-1.5964c0-.1879-.1878-.3757-.3756-.3757h-1.033c-.1878 0-.3756.1878-.3756.3757v1.0329c0 .1878-.1878.3757-.3757.3757h-1.6903-1.4086c-.1878 0-.3756.1878-.3756.3756v1.033c0 .1878-.1878.3756-.3756.3756h-1.033c-.1878 0-.3756.1878-.3756.3756v1.1269c0 .1878.1878.3756.3756.3756h1.3147 1.4086c.1878 0 .3756-.1878.3756-.3756v-1.033c0-.1878.1878-.3756.3756-.3756h1.033c.1878 0 .3756.1878.3756.3756v1.033c0 .1878-.1878.3756-.3756.3756h-1.033c-.1878 0-.3756.1878-.3756.3756v1.033c0 .1878-.1878.3756-.3756.3756h-1.033c-.1878 0-.3756.1878-.3756.3757v1.0329c0 .1878-.1878.3757-.3756.3757h-1.5025-1.8782-1.7842-1.4086c-.1878 0-.3756-.1879-.3756-.3757v-1.0329c0-.1879-.1878-.3757-.3757-.3757h-1.0329c-.1878 0-.3757-.1878-.3757-.3756v-1.033c0-.1878-.1878-.3756-.3756-.3756h-1.4086-1.4086c-.1878 0-.3756-.1878-.3756-.3756v-1.033c0-.1878.1878-.3756.3756-.3756h1.033c.1878 0 .3756-.1878.3756-.3756v-1.033c0-.1878.1878-.3756.3756-.3756h1.033c.1878 0 .3756-.1879.3756-.3757v-1.1268c0-.1879-.1878-.3757-.3756-.3757h-1.4086-1.4086c-.1878 0-.3756.1878-.3756.3757v1.0329c0 .1878-.1878.3757-.3756.3757h-1.033c-.1878 0-.3756-.1879-.3756-.3757v-1.4086-.3756-1.1269c0-.1878-.1878-.3756-.3757-.3756h-1.0329c-.1878 0-.3757.1878-.3757.3756v1.033c0 .1878-.1878.3756-.3756.3756h-1.033c-.1878 0-.3756-.1878-.3756-.3756v-1.033c0-.1878-.1878-.3756-.3756-.3756h-1.3147c-.1878 0-.3756.1878-.3756.3756v1.033c0 .1878-.1878.3756-.3757.3756h-1.1268c-.1879 0-.3757.1878-.3757.3756v1.033c0 .1878-.1878.3756-.3756.3756h-1.033c-.1878 0-.3756.1879-.3756.3757v1.4086 1.5964c0 .1878.1878.3756.3756.3756h1.033c.1878 0 .3756-.1878.3756-.3756v-1.033c0-.1878.1878-.3756.3757-.3756h1.0329c.1878 0 .3757-.1878.3757-.3756v-1.033c0-.1878.1878-.3756.3756-.3756h1.033c.1878 0 .3756.1878.3756.3756v.9391c0 .1878.1878.3756.3756.3756h1.1269c.1878 0 .3756.1878.3756.3756v1.1269c0 .1878.1878.3756.3756.3756h1.1269c.1878 0 .3757.1878.3757.3756v1.033c0 .1878.1878.3756.3756.3756h1.033c.1878 0 .3756.1878.3756.3757v1.4086 1.4086c0 .1878-.1878.3756-.3756.3756h-1.033c-.1878 0-.3756-.1878-.3756-.3756v-1.4086-.3757-1.0329c0-.1879-.1879-.3757-.3757-.3757h-1.0329c-.1879 0-.3757.1878-.3757.3757v1.0329c0 .1878-.1878.3757-.3756.3757h-1.033c-.1878 0-.3756.1878-.3756.3756v1.4086 1.7842 1.8781 1.4086c0 .1879.1878.3757.3756.3757h.9391c.1878 0 .3756-.1878.3756-.3757v-1.0329c0-.1878.1878-.3757.3756-.3757h1.4086 1.7843 1.4086c.1878 0 .3756.1879.3756.3757v1.0329c0 .1879-.1878.3757-.3756.3757h-1.4086-1.4086c-.1878 0-.3757.1878-.3757.3756v1.4086 1.4086c0 .1878-.1878.3756-.3756.3756h-1.4086-1.4086c-.1878 0-.3756.1878-.3756.3756v1.033c0 .1878-.1878.3756-.3756.3756h-1.033c-.1878 0-.3756.1879-.3756.3757v1.0329c0 .1879.1878.3757.3756.3757h1.4086 1.4086c.1878 0 .3756-.1878.3756-.3757v-1.0329c0-.1878.1878-.3757.3756-.3757h1.1269c.1878 0 .3757.1879.3757.3757v1.0329c0 .1879.1878.3757.3756.3757h1.4086 1.4086c.1878 0 .3756-.1878.3756-.3757v-1.0329-1.4086c0-.1878.1878-.3757.3756-.3757h1.4086.3757 1.0329c.1878 0 .3757-.1878.3757-.3756v-1.033c0-.1878-.1879-.3756-.3757-.3756h-1.0329c-.1879 0-.3757-.1878-.3757-.3756v-1.033c0-.1878.1878-.3756.3757-.3756h1.0329c.1878 0 .3757-.1878.3757-.3756v-1.033c0-.1878-.1879-.3756-.3757-.3756h-1.0329c-.1879 0-.3757-.1878-.3757-.3757v-1.0329c0-.1878-.1878-.3757-.3756-.3757h-1.033c-.1878 0-.3756-.1878-.3756-.3756v-1.033c0-.1878.1878-.3756.3756-.3756h1.4086 1.8782 1.4086c.1878 0 .3756.1878.3756.3756v1.4086 1.8782 1.4086c0 .1878.1878.3756.3756.3756h1.033c.1878 0 .3756.1878.3756.3756v1.4086 1.4086c0 .1878.1878.3757.3756.3757h1.033c.1878 0 .3756-.1879.3756-.3757v-1.0329c0-.1879.1879-.3757.3757-.3757h1.6903 1.8781 1.4086c.1878 0 .3756.1878.3756.3757v1.0329c0 .1878.1879.3757.3757.3757h1.4086 1.4086c.1878 0 .3756.1878.3756.3756v1.0329c0 .1879-.1878.3757-.3756.3757h-1.4086-1.7843-1.8781-1.4086c-.1878 0-.3756-.1878-.3756-.3757v-1.0329c0-.1878-.1878-.3756-.3756-.3756h-1.033c-.1878 0-.3756.1878-.3756.3756v1.0329c0 .1879-.1879.3757-.3757.3757h-1.4086-1.4086c-.1878 0-.3756-.1878-.3756-.3757v-1.0329c0-.1878-.1878-.3756-.3756-.3756h-1.033c-.1878 0-.3756.1878-.3756.3756v1.0329c0 .1879-.1878.3757-.3756.3757h-1.033c-.1878 0-.3756.1878-.3756.3756v1.033c0 .1878.1878.3756.3756.3756h1.033c.1878 0 .3756.1878.3756.3756v1.033c0 .1878.1878.3756.3756.3756h1.033c.1878 0 .3756-.1878.3756-.3756v-1.033c0-.1878.1878-.3756.3756-.3756h1.4086 1.4086c.1878 0 .3757.1878.3757.3756v1.033c0 .1878.1878.3756.3756.3756h1.033c.1878 0 .3756-.1878.3756-.3756v-1.033c0-.1878.1878-.3756.3756-.3756h1.5025 1.8782 1.7842 1.8781 1.4086c.1878 0 .3756-.1878.3756-.3756v-1.5025-1.8782-1.4086c0-.1878-.1878-.3756-.3756-.3756h-1.033c-.1878 0-.3756-.1878-.3756-.3756v-1.033c0-.1878-.1878-.3756-.3756-.3756h-1.033c-.1878 0-.3756-.1878-.3756-.3756v-1.4086-1.4086c0-.1878.1878-.3757.3756-.3757h1.4086 1.8781 1.8782 1.4086c.1878 0 .3756.1879.3756.3757v1.4086 1.8781 1.4086c0 .1878-.1878.3756-.3756.3756h-1.033c-.1878 0-.3756.1878-.3756.3756v1.033c0 .1878.1878.3756.3756.3756h1.4086 1.4086c.1878 0 .3756.1879.3756.3757v1.4086 1.4086c0 .1878.1878.3756.3757.3756h1.4086 1.8781.3756.9391c.1878 0 .3756-.1878.3756-.3756v-1.033zm-16.5276-6.2917c0 .1878-.1878.3756-.3756.3756h-1.4086-1.8781-1.4086c-.1878 0-.3756-.1878-.3756-.3756v-1.4086-1.8782-1.4086c0-.1878.1878-.3756.3756-.3756h1.4086 1.8781 1.4086c.1878 0 .3756.1878.3756.3756v1.4086 1.8782z"/><path d="m89.2557 86.0627h-1.4086-1.8781-1.4086c-.1878 0-.3756.1879-.3756.3757v1.0329c0 .1879-.1879.3757-.3757.3757h-1.0329c-.1879 0-.3757.1878-.3757.3756v1.033c0 .1878.1878.3756.3757.3756h1.4086 1.8781 1.4086c.1878 0 .3756-.1878.3756-.3756v-1.033c0-.1878.1878-.3756.3756-.3756h1.033c.1878 0 .3756-.1878.3756-.3757v-1.0329c0-.2817-.0939-.3757-.3756-.3757z"/><path d="m26.9952 87.8459h-1.033c-.1878 0-.3756.1879-.3756.3757v1.0329c0 .1879.1878.3757.3756.3757h1.033c.1878 0 .3756-.1878.3756-.3757v-1.0329c0-.1878-.0939-.3757-.3756-.3757z"/><path d="m37.9826 87.8459h-1.033c-.1878 0-.3756.1879-.3756.3757v1.0329c0 .1879.1878.3757.3756.3757h1.033c.1878 0 .3756-.1878.3756-.3757v-1.0329c0-.1878-.0939-.3757-.3756-.3757z"/><path d="m61.835 87.8459h-1.4086-.3756-1.033c-.1878 0-.3756.1879-.3756.3757v1.0329c0 .1879.1878.3757.3756.3757h1.4086.3757 1.0329c.1878 0 .3757-.1878.3757-.3757v-1.0329c0-.1878-.1879-.3757-.3757-.3757z"/><path d="m74.6063 87.8459h-1.4086-1.8782-1.7842-.3756-1.033c-.1878 0-.3756.1879-.3756.3757v1.0329c0 .1879.1878.3757.3756.3757h1.4086 1.7842 1.8782.3756 1.033c.1878 0 .3756-.1878.3756-.3757v-1.0329c0-.1878-.0939-.3757-.3756-.3757z"/><path d="m11.1252 20.139h5.0709c2.1599 0 3.8502-1.6903 3.8502-3.8502v-5.071c0-2.15981-1.6903-3.85012-3.8502-3.85012h-5.0709c-2.15989 0-3.85021 1.69031-3.85021 3.85012v5.071c0 2.0659 1.69032 3.8502 3.85021 3.8502zm-2.06598-8.2638c0-1.5025 1.31468-2.7233 2.81718-2.7233h3.6624c1.5025 0 2.7233 1.2208 2.7233 2.7233v3.6623c0 1.5026-1.2208 2.7233-2.7233 2.7233h-3.6624c-1.5025 0-2.72327-1.2207-2.72327-2.7233v-3.6623z"/><path d="m12.6274 16.385h2.1599c.9391 0 1.6903-.7513 1.6903-1.6903v-2.1599c0-.9391-.7512-1.6903-1.6903-1.6903h-2.1599c-.939 0-1.6903.7512-1.6903 1.6903v2.1599c0 1.0329.7513 1.6903 1.6903 1.6903z"/><path d="m85.7807 7.2749h-5.071c-2.1598 0-3.8502 1.69032-3.8502 3.8502v5.0709c0 2.1599 1.6904 3.8502 3.8502 3.8502h5.071c2.1598 0 3.8501-1.6903 3.8501-3.8502v-5.0709c0-2.15988-1.6903-3.8502-3.8501-3.8502zm2.0659 8.2638c0 1.5025-1.2208 2.7233-2.7233 2.7233h-3.6623c-1.5025 0-2.7233-1.2208-2.7233-2.7233v-3.6624c0-1.5025 1.2208-2.72327 2.7233-2.72327h3.6623c1.5025 0 2.7233 1.22077 2.7233 2.72327z"/><path d="m84.3726 10.937h-2.1599c-.939 0-1.6903.7513-1.6903 1.6903v2.1599c0 .939.7513 1.6903 1.6903 1.6903h2.1599c.939 0 1.6903-.7513 1.6903-1.6903v-2.1599c-.0939-.939-.7513-1.6903-1.6903-1.6903z"/><path d="m16.1961 76.8594h-5.0709c-2.15989 0-3.85021 1.6903-3.85021 3.8502v5.0709c0 2.1599 1.69032 3.8502 3.85021 3.8502h5.0709c2.1599 0 3.8502-1.6903 3.8502-3.8502v-5.0709c.0939-2.1599-1.6903-3.8502-3.8502-3.8502zm2.066 8.2638c0 1.5025-1.2208 2.7233-2.7233 2.7233h-3.6624c-1.5025 0-2.81718-1.2208-2.81718-2.7233v-3.6624c0-1.5025 1.22078-2.7233 2.72328-2.7233h3.6624c1.5025 0 2.7233 1.2208 2.7233 2.7233v3.6624z"/><path d="m14.7873 80.5215h-2.1599c-.939 0-1.6903.7512-1.6903 1.6903v2.1599c0 .939.7513 1.6903 1.6903 1.6903h2.1599c.9391 0 1.6903-.7513 1.6903-1.6903v-2.1599c-.0939-.9391-.7512-1.6903-1.6903-1.6903z"/></g><path clip-rule="evenodd" d="m41.2729 36.375h14.4512c2.7066 0 4.8979 2.1916 4.9009 4.8985v14.453c0 2.7069-2.1943 4.8985-4.8979 4.8985h-14.4542c-2.7066 0-4.8979-2.1916-4.8979-4.8955v-14.456c0-2.7069 2.1913-4.8985 4.8979-4.8985zm7.6135 4.7227-.491.8488-.4819-.8518c-.3091-.5305-.979-.7093-1.5094-.4062-.5304.3092-.7092.9791-.4061 1.5096l1.1245 1.9521-3.6007 6.2413h-2.8127c-.6122 0-1.1032.4911-1.1032 1.1034s.491 1.1034 1.1032 1.1034h10.0322c.4819-.9033-.1394-2.2068-1.2487-2.2068h-3.4219l4.7312-8.1904c.3031-.5305.1243-1.2064-.4061-1.5096-.5304-.3031-1.2063-.1242-1.5094.4062zm-5.8071 14.4773 1.0608-1.84c-.5729-.6911-1.2972-.9033-2.1883-.6275l-.788 1.3641c-.3031.5305-.1243 1.2064.4061 1.5096.5304.3031 1.2063.1242 1.5094-.4062zm13.0661-5.1774h-2.8703c-.2199-.3809-.4314-.7472-.6345-1.099-1.1321-1.961-2.0034-3.4702-2.6176-4.524-.6516.5426-1.3124 2.1431-.388 3.7376.4009.6955.8919 1.5456 1.4724 2.5509.7277 1.2599 1.5961 2.7635 2.6042 4.5119.3091.5304.9789.7093 1.5093.4062.5304-.3092.7093-.9791.4062-1.5096l-1.076-1.8672h1.5943c.6122 0 1.1032-.4911 1.1032-1.1034s-.491-1.1034-1.1032-1.1034z" fill="url(#a)" fill-rule="evenodd"/><path d="m9.7 1.2125h77.6v-2.425h-77.6zm86.0875 8.4875v143.075h2.425v-143.075zm-8.4875 151.562h-77.6v2.425h77.6zm-86.0875-8.487v-143.07501h-2.425v143.07501zm8.4875 8.487c-4.68752 0-8.4875-3.799-8.4875-8.487h-2.425c0 6.027 4.88569 10.912 10.9125 10.912zm86.0875-8.487c0 4.688-3.8 8.487-8.4875 8.487v2.425c6.0268 0 10.9125-4.885 10.9125-10.912zm-8.4875-151.5625c4.6875 0 8.4875 3.79998 8.4875 8.4875h2.425c0-6.02681-4.8857-10.9125-10.9125-10.9125zm-77.6-2.425c-6.02681 0-10.9125 4.88568-10.9125 10.91249h2.425c0-4.68751 3.79998-8.48749 8.4875-8.48749z" fill="#fff"/></svg>